<?xml version="1.0" encoding="UTF-8" standalone="no"?>
<!-- Created with Inkscape (http://www.inkscape.org/) -->

<svg
   xmlns:dc="http://purl.org/dc/elements/1.1/"
   xmlns:cc="http://creativecommons.org/ns#"
   xmlns:rdf="http://www.w3.org/1999/02/22-rdf-syntax-ns#"
   xmlns:svg="http://www.w3.org/2000/svg"
   xmlns="http://www.w3.org/2000/svg"
   xmlns:sodipodi="http://sodipodi.sourceforge.net/DTD/sodipodi-0.dtd"
   xmlns:inkscape="http://www.inkscape.org/namespaces/inkscape"
   width="61.471996mm"
   height="61.471996mm"
   viewBox="0 0 61.471995 61.471996"
   version="1.1"
   id="svg8"
   inkscape:version="0.92.3 (2405546, 2018-03-11)"
   sodipodi:docname="Office of the President of the Islamic Republic of Iran.svg">
  <defs
     id="defs2" />
  <sodipodi:namedview
     id="base"
     pagecolor="#ffffff"
     bordercolor="#666666"
     borderopacity="1.0"
     inkscape:pageopacity="0.0"
     inkscape:pageshadow="2"
     inkscape:zoom="0.175"
     inkscape:cx="179.56521"
     inkscape:cy="-255.86358"
     inkscape:document-units="mm"
     inkscape:current-layer="layer1"
     showgrid="false"
     inkscape:snap-global="false"
     inkscape:window-width="1366"
     inkscape:window-height="705"
     inkscape:window-x="-8"
     inkscape:window-y="-8"
     inkscape:window-maximized="1"
     fit-margin-top="0"
     fit-margin-left="0"
     fit-margin-right="0"
     fit-margin-bottom="0" />
  <metadata
     id="metadata5">
    <rdf:RDF>
      <cc:Work
         rdf:about="">
        <dc:format>image/svg+xml</dc:format>
        <dc:type
           rdf:resource="http://purl.org/dc/dcmitype/StillImage" />
        <dc:title></dc:title>
      </cc:Work>
    </rdf:RDF>
  </metadata>
  <g
     inkscape:label="Layer 1"
     inkscape:groupmode="layer"
     id="layer1"
     transform="translate(51.02623,-146.90467)">
    <g
       id="g1345">
      <circle
         style="opacity:1;fill:#303a3b;fill-opacity:1;stroke:none;stroke-width:1.33185208;stroke-linecap:round;stroke-linejoin:round;stroke-miterlimit:4;stroke-dasharray:none;stroke-dashoffset:0;stroke-opacity:1"
         id="circle999"
         cx="-20.290232"
         cy="177.64067"
         r="30.735998" />
      <circle
         r="30.468729"
         cy="177.64067"
         cx="-20.290232"
         id="path828"
         style="opacity:1;fill:#ffffff;fill-opacity:1;stroke:none;stroke-width:1.32027078;stroke-linecap:round;stroke-linejoin:round;stroke-miterlimit:4;stroke-dasharray:none;stroke-dashoffset:0;stroke-opacity:1" />
      <circle
         style="opacity:1;fill:#303a3b;fill-opacity:1;stroke:none;stroke-width:1.32027078;stroke-linecap:round;stroke-linejoin:round;stroke-miterlimit:4;stroke-dasharray:none;stroke-dashoffset:0;stroke-opacity:1"
         id="circle830"
         cx="-20.290232"
         cy="177.64067"
         r="29.132381" />
      <circle
         style="opacity:1;fill:#ffffff;fill-opacity:1;stroke:none;stroke-width:1.32027078;stroke-linecap:round;stroke-linejoin:round;stroke-miterlimit:4;stroke-dasharray:none;stroke-dashoffset:0;stroke-opacity:1"
         id="circle832"
         cx="-20.290232"
         cy="177.64067"
         r="16.837984" />
      <circle
         r="15.478125"
         cy="177.64067"
         cx="-20.290232"
         id="circle834"
         style="opacity:1;fill:#303a3b;fill-opacity:1;stroke:none;stroke-width:1.32027078;stroke-linecap:round;stroke-linejoin:round;stroke-miterlimit:4;stroke-dasharray:none;stroke-dashoffset:0;stroke-opacity:1" />
      <path
         inkscape:connector-curvature="0"
         id="rect836"
         d="m -50.521168,174.03279 a 30.468728,30.468728 0 0 0 -0.08578,0.56585 30.468728,30.468728 0 0 0 -0.151929,3.04219 30.468728,30.468728 0 0 0 0.07648,2.15491 30.468728,30.468728 0 0 0 0.176216,1.45314 h 15.182537 a 15.478125,15.478125 0 0 1 -0.444936,-3.60805 15.478125,15.478125 0 0 1 0.444418,-3.60804 z m 45.2644201,0 a 15.478125,15.478125 0 0 1 0.4444172,3.60804 15.478125,15.478125 0 0 1 -0.4444172,3.60805 h 15.197005 a 30.468728,30.468728 0 0 0 0.085783,-0.56637 30.468728,30.468728 0 0 0 0.152446,-3.04168 30.468728,30.468728 0 0 0 -0.07648,-2.15542 30.468728,30.468728 0 0 0 -0.1762157,-1.45262 z"
         style="opacity:1;fill:#ffffff;fill-opacity:1;stroke:none;stroke-width:1.32027078;stroke-linecap:round;stroke-linejoin:round;stroke-miterlimit:4;stroke-dasharray:none;stroke-dashoffset:0;stroke-opacity:1" />
      <g
         style="fill:#ffffff;stroke-width:27.97340965;stroke-miterlimit:4;stroke-dasharray:none"
         transform="matrix(0.04719735,0,0,0.04719735,-37.989238,152.51459)"
         inkscape:label="Layer 1"
         id="layer1-1">
        <g
           style="fill:#ffffff;fill-opacity:1;stroke-width:23.87365723;stroke-miterlimit:4;stroke-dasharray:none"
           transform="matrix(1.1717271,0,0,1.1717271,130.27513,291.95893)"
           id="g3993">
          <g
             style="fill:#ffffff;fill-opacity:1;stroke-width:23.87365723;stroke-miterlimit:4;stroke-dasharray:none"
             id="g3995">
            <path
               inkscape:connector-curvature="0"
               d="m 296.69,47.667 c 0,0 156,122 41.333,297.33 108,-66 117.33,-247.5 -41.333,-297.33 z"
               id="path3997"
               style="fill:#ffffff;fill-opacity:1;stroke-width:23.87365723;stroke-miterlimit:4;stroke-dasharray:none" />
            <path
               inkscape:connector-curvature="0"
               d="m 208.86,30.334 c -24.834,28 -67.5,0.1665 -52.833,-30.334 25.667,46 52.833,8.8335 52.833,8.8335 0,0 27.166,37.166 52.833,-8.8335 14.667,30.5 -27.999,58.334 -52.833,30.334 z"
               id="path3999"
               style="fill:#ffffff;fill-opacity:1;stroke-width:23.87365723;stroke-miterlimit:4;stroke-dasharray:none" />
            <path
               inkscape:connector-curvature="0"
               d="m 208.86,410.34 -17.833,-23.334 c 0,0 -41.999,14 -97.333,-5.333 45.333,0 70.667,-8.001 80,-12.667 0,0 -102.67,-55.333 -100.67,-168 6,-114 66.667,-148.67 66.667,-148.67 0,0 -108,157.33 50.666,288.83 l -7,-162.67 v -119.5 c 9,-2.167 25.5,-21.167 25.5,-21.167 0,0 16.5,19 25.5,21.167 v 119.5 l -7,162.67 c 158.66,-131.5 50.66,-288.84 50.66,-288.84 0,0 60.667,34.667 66.667,148.67 2,112.67 -100.67,168 -100.67,168 9.333,4.666 34.667,12.667 80,12.667 -55.334,19.333 -97.333,5.333 -97.333,5.333 l -17.833,23.334 z"
               id="path4001"
               style="fill:#ffffff;fill-opacity:1;stroke-width:23.87365723;stroke-miterlimit:4;stroke-dasharray:none" />
            <path
               inkscape:connector-curvature="0"
               d="m 121.03,47.667 c 0,0 -156,122 -41.333,297.33 -108,-66 -117.34,-247.5 41.333,-297.33 z"
               id="path4003"
               style="fill:#ffffff;fill-opacity:1;stroke-width:23.87365723;stroke-miterlimit:4;stroke-dasharray:none" />
          </g>
        </g>
      </g>
      <g
         style="stroke-width:1.32027078;stroke-miterlimit:4;stroke-dasharray:none"
         transform="translate(2.6726953,28.998744)"
         id="g975">
        <path
           inkscape:connector-curvature="0"
           id="path870"
           style="font-style:normal;font-variant:normal;font-weight:normal;font-stretch:normal;font-size:medium;line-height:1.25;font-family:IranNastaliq;-inkscape-font-specification:IranNastaliq;letter-spacing:0px;word-spacing:0px;fill:#ffffff;fill-opacity:1;stroke:none;stroke-width:1.32027078;stroke-miterlimit:4;stroke-dasharray:none"
           d="m 2.493116,140.60096 q -0.1232225,0.0977 -0.5141209,0.2894 -0.3879417,0.18906 -0.8841363,0.37387 -0.4936102,0.18778 -0.7786989,0.24996 -0.28214032,0.0596 -0.49388488,0.0207 -0.20916451,-0.0358 -0.54052135,-0.24659 -0.32582077,-0.2104 -0.50560667,-0.35565 -0.1771808,-0.14231 -0.2160458,-0.18658 -0.032677,-0.0497 -0.011233,-0.0842 0.024682,-0.0374 0.1030008,-0.0434 0.1181856,-0.0202 0.4127704,0.0713 0.29459122,0.0915 0.70555827,0.19053 0.41650932,0.0994 0.64813266,0.0894 0.2371504,-0.01 0.63337477,-0.1119 0.3962223,-0.10227 0.7720751,-0.23368 0.3813935,-0.13105 0.5231798,-0.17192 0.1473364,-0.0405 0.1906829,0.0205 0.035176,0.058 -0.044486,0.12789 z" />
        <g
           style="stroke-width:1.4430449;stroke-miterlimit:4;stroke-dasharray:none"
           id="g961"
           transform="matrix(0.52864136,0.74673772,-0.74673772,0.52864136,166.12859,23.737118)">
          <path
             d="m -3.8397861,221.6206 q 0.064383,-0.27471 0.1416436,-0.47644 0.07726,-0.20603 0.1545203,-0.33909 0.07726,-0.13735 0.1459358,-0.20603 0.068676,-0.073 0.1201824,-0.0858 v 0.28329 q 0,0.54082 0.2875795,0.75543 0.1759814,0.11589 0.3476706,0.0773 0.1759814,-0.0386 0.2661183,-0.18027 0.094429,-0.14165 0.1588125,-0.33051 0.064383,-0.19315 0.1244746,-0.19315 0.068676,0 0.055799,0.13736 -0.00429,0.23178 -0.1459358,0.75543 -0.1373514,0.51936 -0.3777162,0.85415 -0.2360727,0.3348 -0.5751589,0.35196 -0.3476706,-0.0129 -0.540821,-0.39059 -0.1759814,-0.37342 -0.1631047,-0.96575 z m 0.064383,5.11204 q 0,-0.0858 0.2618261,-0.56657 0.261826,-0.48073 0.3262095,-0.51078 0.1073057,-0.0429 0.317625,0.15881 0.2103193,0.20174 0.317625,0.35626 0.1287669,-0.21032 0.2832872,-0.47215 0.1588125,-0.26182 0.2146115,-0.26611 0.1588125,0 0.3820085,0.23178 0.223196,0.23607 0.2360727,0.4421 0,0.24465 -0.2403649,0.57945 -0.2317805,0.3305 -0.3390862,0.3305 -0.072968,0 -0.261826,-0.18886 -0.1845659,-0.18457 -0.3262095,-0.28758 -0.3476707,0.69963 -0.5536977,0.69963 -0.051507,0 -0.1459358,-0.0816 -0.090137,-0.0773 -0.278995,-0.23178 -0.1931504,-0.15452 -0.1931504,-0.19315 z"
             style="font-style:normal;font-variant:normal;font-weight:normal;font-stretch:normal;font-size:medium;line-height:1.25;font-family:IranNastaliq;-inkscape-font-specification:IranNastaliq;letter-spacing:0px;word-spacing:0px;fill:#ffffff;fill-opacity:1;stroke:none;stroke-width:1.4430449;stroke-miterlimit:4;stroke-dasharray:none"
             id="path872"
             inkscape:connector-curvature="0" />
          <path
             d="m -3.2732116,220.59904 q -0.012877,0.24037 -0.051507,0.4421 -0.03863,0.19745 -0.1073058,0.3348 -0.064383,0.13735 -0.1631047,0.20603 -0.098721,0.0687 -0.2403649,0.0472 0.00858,-0.50219 0.1073057,-1.39927 0.098721,-0.90137 0.3004561,-1.9873 0.1030136,-0.31762 0.4163464,-1.11598 0.034338,-0.0773 0.068676,-0.0644 0.034338,0.0129 0.034338,0.0644 -0.017169,0.39489 -0.1588125,1.50228 -0.1416436,1.1074 -0.1759815,1.51945 -0.030046,0.41205 -0.030046,0.45068 z"
             style="font-style:normal;font-variant:normal;font-weight:normal;font-stretch:normal;font-size:medium;line-height:1.25;font-family:IranNastaliq;-inkscape-font-specification:IranNastaliq;letter-spacing:0px;word-spacing:0px;fill:#ffffff;fill-opacity:1;stroke:none;stroke-width:1.4430449;stroke-miterlimit:4;stroke-dasharray:none"
             id="path874"
             inkscape:connector-curvature="0" />
        </g>
        <path
           inkscape:connector-curvature="0"
           id="path876"
           style="font-style:normal;font-variant:normal;font-weight:normal;font-stretch:normal;font-size:medium;line-height:1.25;font-family:IranNastaliq;-inkscape-font-specification:IranNastaliq;letter-spacing:0px;word-spacing:0px;fill:#ffffff;fill-opacity:1;stroke:none;stroke-width:1.32027078;stroke-miterlimit:4;stroke-dasharray:none"
           d="m 0.59159495,135.92335 q 0.131979,-0.0431 0.1860399,-0.003 0.0567651,0.0371 -0.0981672,0.14483 -0.44898092,0.29495 -0.99065911,0.3845 -0.11047144,0.0202 -0.25802905,0.011 -0.14467477,-0.006 -0.22702571,-0.0622 -0.20682598,0.0483 -0.42044688,0.0579 -0.2080652,0.009 -0.3911912,-0.15697 -0.103109,-0.0967 -0.2529818,-0.0919 -0.1471874,0.002 -0.2136208,0.01 -0.4286816,0.0609 -0.7973734,0.0866 -0.3054738,0.004 -0.4221665,-0.16988 -0.1138347,-0.17138 -0.1970393,-0.34098 0.024381,-0.10636 0.0937,-0.19747 0.069325,-0.0911 0.2528807,-0.172 0.4373283,0.29721 0.9025379,0.33509 0.4651784,0.0379 0.969416,-0.006 0.2660912,-0.0196 0.47266059,0.18492 0.2139476,0.17373 0.54307458,0.041 0.10691089,-0.0451 0.16563334,-0.0331 0.03654349,0.0127 0.06578054,0.0504 0.03186603,0.0349 0.05405818,0.0457 0.06483986,0.0285 0.22471979,-0.01 0.1599111,-0.0384 0.33827472,-0.10805 z" />
        <path
           inkscape:connector-curvature="0"
           id="path878"
           style="font-style:normal;font-variant:normal;font-weight:normal;font-stretch:normal;font-size:medium;line-height:1.25;font-family:IranNastaliq;-inkscape-font-specification:IranNastaliq;letter-spacing:0px;word-spacing:0px;fill:#ffffff;fill-opacity:1;stroke:none;stroke-width:1.32027078;stroke-miterlimit:4;stroke-dasharray:none"
           d="m -3.6941949,135.43524 q -0.513567,0.0998 -0.8847373,0.0477 -0.5937349,-0.0616 -1.0465253,-0.23326 -0.44992,-0.16899 -0.9615901,-0.44435 -0.5089786,-0.27823 -1.0786125,-0.71565 -0.5667943,-0.43472 -1.0279212,-0.86728 -0.2864138,-0.26867 -0.6236509,-0.64962 -0.3316821,-0.38113 -0.3896301,-0.62932 -0.110708,-0.42154 0.308414,-0.86834 0.2283707,-0.24345 0.5939213,-0.5413 0.3438716,-0.28048 0.4040206,-0.22406 0.048692,0.0457 -0.1195063,0.25942 -0.2362793,0.34373 -0.086331,0.68899 0.1554957,0.34509 0.6391557,0.87417 0.4892093,0.5289 0.8443621,0.86206 0.2892785,0.27135 0.6829134,0.59218 0.3879077,0.31546 0.8106014,0.58809 0.3861815,0.25989 0.8573707,0.48657 0.4712145,0.22664 0.9438968,0.32545 0.4753676,0.0959 0.6499573,0.082 0.1127773,0.052 -0.1091155,0.23687 0.046344,0.0597 0.1398251,0.11498 0.024529,0.0714 -0.017586,0.14502 -0.039386,0.0707 -0.1071205,0.12567 -0.062123,0.0547 -0.1278692,0.0847 -0.065743,0.0299 -0.093977,0.0141 z m -2.2644165,-4.69789 q 0.053706,-0.0572 0.5293556,-0.21418 0.4756242,-0.15689 0.5373957,-0.13664 0.098457,0.0385 0.1125395,0.30479 0.014064,0.26626 -0.011054,0.43654 0.2175735,-0.0597 0.4845741,-0.13774 0.2698591,-0.0753 0.3097845,-0.0432 0.1059734,0.0994 0.1071342,0.39665 0.00385,0.29437 -0.116512,0.43991 -0.1531444,0.16326 -0.5230972,0.2362 -0.3615451,0.0755 -0.4331488,0.008 -0.048692,-0.0457 -0.059181,-0.28705 -0.00494,-0.24155 -0.034979,-0.39895 -0.6699272,0.24923 -0.8074058,0.12027 -0.034372,-0.0322 -0.046366,-0.14573 -0.011763,-0.10801 -0.043951,-0.33199 -0.029301,-0.22132 -0.00512,-0.2471 z" />
      </g>
      <g
         style="stroke-width:1.48640835;stroke-miterlimit:4;stroke-dasharray:none"
         transform="matrix(0.84216992,0.28231256,-0.28231256,0.84216992,69.239641,-23.004205)"
         id="g950">
        <path
           inkscape:connector-curvature="0"
           id="path880"
           style="font-style:normal;font-variant:normal;font-weight:normal;font-stretch:normal;font-size:medium;line-height:1.25;font-family:IranNastaliq;-inkscape-font-specification:IranNastaliq;letter-spacing:0px;word-spacing:0px;fill:#ffffff;fill-opacity:1;stroke:none;stroke-width:1.48640835;stroke-miterlimit:4;stroke-dasharray:none"
           d="m -18.815376,217.54298 q -0.107306,0.073 -0.201735,0.0601 -0.09443,-0.0129 -0.141644,-0.0601 0.06438,-0.0944 0.223196,-0.26183 0.158813,-0.1674 0.4421,-0.36913 0.296164,-0.19744 0.592328,-0.33909 0.579451,-0.27899 0.579451,-0.29187 0,-0.0515 -0.32621,-0.12447 -0.326209,-0.073 -0.59662,-0.073 -0.257533,0 -0.364839,0.0687 -0.03434,0.0215 -0.201735,0.20603 -0.133059,0.18886 -0.210319,0.15023 -0.03863,-0.0129 -0.0086,-0.12448 0.06009,-0.14593 0.223196,-0.40776 0.163105,-0.26612 0.343379,-0.39059 0.175981,-0.12018 0.412054,-0.13735 0.240365,-0.0172 0.605204,0.0558 0.369132,0.0687 0.562282,0.12018 0.193151,0.0515 0.339086,0.12447 0.137352,0.0773 0.137352,0.21891 0,0.32621 -0.527944,0.65671 -0.167397,0.0944 -0.553698,0.24466 -0.386301,0.14593 -0.776894,0.34338 -0.390593,0.19744 -0.549405,0.3305 z m 0.665295,7.76464 q 0,0.073 0.09014,0.15023 0.107306,0.0858 0.321917,0.23178 0.214612,0.15023 0.253242,0.15023 0.09443,0 0.309041,-0.3863 0.214611,-0.38201 0.214611,-0.58375 -0.01717,-0.15452 -0.274703,-0.42922 -0.253241,-0.27041 -0.390593,-0.21032 -0.06867,0.0343 -0.296163,0.48502 -0.227489,0.45069 -0.227489,0.59233 z" />
        <path
           inkscape:connector-curvature="0"
           id="path882"
           style="font-style:normal;font-variant:normal;font-weight:normal;font-stretch:normal;font-size:medium;line-height:1.25;font-family:IranNastaliq;-inkscape-font-specification:IranNastaliq;letter-spacing:0px;word-spacing:0px;fill:#ffffff;fill-opacity:1;stroke:none;stroke-width:1.48640835;stroke-miterlimit:4;stroke-dasharray:none"
           d="m -19.167339,217.54298 q 0.08155,-0.0558 0.184566,-0.0472 0.103013,0.009 0.15452,0.0472 0.291872,0.29187 0.446392,0.48073 0.158813,0.18885 0.158813,0.33908 0,0.12019 -0.03863,0.2232 -0.03863,0.10301 -0.120182,0.22749 -0.188858,0.26182 -0.420639,0.26182 -0.0043,0 -0.23178,-0.0429 -0.180274,-0.0472 -0.257534,-0.0472 -0.248949,0 -0.527944,0.22748 -0.300456,0.23608 -0.454976,0.58375 -0.02146,0.0129 -0.06009,0.03 -0.04292,0.0215 -0.09443,0.0301 -0.0558,0.009 -0.111598,-0.004 -0.0558,-0.009 -0.103013,-0.0558 0.296164,-0.57945 0.454976,-0.79836 0.158813,-0.2189 0.321917,-0.41205 0.163105,-0.19315 0.28758,-0.34767 0.06867,-0.0944 0.09014,-0.14165 0.07297,-0.22748 0.167397,-0.35625 0.09872,-0.12448 0.15452,-0.19744 z" />
        <path
           inkscape:connector-curvature="0"
           id="path884"
           style="font-style:normal;font-variant:normal;font-weight:normal;font-stretch:normal;font-size:medium;line-height:1.25;font-family:IranNastaliq;-inkscape-font-specification:IranNastaliq;letter-spacing:0px;word-spacing:0px;fill:#ffffff;fill-opacity:1;stroke:none;stroke-width:1.48640835;stroke-miterlimit:4;stroke-dasharray:none"
           d="m -20.283319,219.7964 -0.158812,0.35625 -0.240365,0.65671 q -0.05151,0.12877 -0.08155,0.19315 -0.04722,0.10302 -0.137352,0.0816 -0.05151,-0.0129 -0.02575,-0.1674 0.02575,-0.12018 0.04292,-0.22749 0.02146,-0.1073 0.04292,-0.20173 0.03005,-0.19315 0.03005,-0.24466 0,-0.24466 -0.133059,-0.41205 -0.141644,-0.1674 -0.407762,-0.1674 -0.210319,0.0257 -0.437807,0.32621 -0.261826,0.39488 -0.630958,0.7168 l -0.274703,0.2232 q -0.03434,-0.24466 -0.0086,-0.48503 0.02146,-0.24036 0.128767,-0.48073 0.07297,0.0129 0.180273,0.004 0.111598,-0.009 0.240365,-0.1116 0.141644,-0.0987 0.261826,-0.24466 0.103014,-0.12877 0.201735,-0.26182 0.103013,-0.13306 0.197443,-0.26612 0.253241,-0.29187 0.536528,-0.29187 0.24895,0 0.424931,0.21461 0.103014,0.15881 0.15452,0.24895 0.05151,0.0858 0.09014,0.15452 0.03005,0.0644 0.03005,0.11159 0,0.10302 -0.0043,0.14165 0,0.0386 -0.0086,0.073 -0.0043,0.03 -0.01288,0.0601 z" />
        <path
           inkscape:connector-curvature="0"
           id="path886"
           style="font-style:normal;font-variant:normal;font-weight:normal;font-stretch:normal;font-size:medium;line-height:1.25;font-family:IranNastaliq;-inkscape-font-specification:IranNastaliq;letter-spacing:0px;word-spacing:0px;fill:#ffffff;fill-opacity:1;stroke:none;stroke-width:1.48640835;stroke-miterlimit:4;stroke-dasharray:none"
           d="m -22.571078,221.21713 q -0.223196,0.62237 -0.416346,0.91853 -0.193151,0.29617 -0.304749,0.36913 -0.107306,0.0687 -0.326209,0.15023 -0.218904,0.0816 -0.669588,0.22749 -0.446392,0.14164 -0.527945,0.14164 -0.05151,0 -0.05151,-0.0257 -0.05151,-0.0687 0.532236,-0.45927 0.588036,-0.39488 0.755433,-0.51506 0.171689,-0.12448 0.34767,-0.36055 0.180274,-0.23607 0.261826,-0.53224 -0.04721,-0.004 -0.09443,0.009 -0.04292,0.0129 -0.09014,0.03 -0.04292,0.0172 -0.09014,0.0343 -0.04721,0.0129 -0.09014,0.0129 -0.240365,-0.009 -0.40347,-0.15452 -0.158812,-0.15023 -0.133059,-0.33051 0.02575,-0.1073 0.07297,-0.25324 0.05151,-0.14593 0.206027,-0.45927 0.15452,-0.31762 0.309041,-0.52365 0.158812,-0.20603 0.313332,-0.20603 0.266119,0 0.4421,0.22749 0.175982,0.2232 0.175982,0.54082 0,0.15882 -0.02146,0.31763 -0.01717,0.15881 -0.03863,0.26612 -0.02146,0.10301 -0.06438,0.27041 -0.04292,0.1631 -0.09443,0.30475 z" />
        <path
           inkscape:connector-curvature="0"
           id="path888"
           style="font-style:normal;font-variant:normal;font-weight:normal;font-stretch:normal;font-size:medium;line-height:1.25;font-family:IranNastaliq;-inkscape-font-specification:IranNastaliq;letter-spacing:0px;word-spacing:0px;fill:#ffffff;fill-opacity:1;stroke:none;stroke-width:1.48640835;stroke-miterlimit:4;stroke-dasharray:none"
           d="m -24.901757,219.6848 q -0.0086,0.17169 -0.13306,0.63096 -0.124474,0.45497 -0.330501,0.99579 -0.201735,0.54083 -0.356255,0.81982 -0.154521,0.2747 -0.339087,0.42064 -0.180273,0.14594 -0.592327,0.26612 -0.407762,0.11589 -0.656712,0.15881 -0.244657,0.0429 -0.30904,0.0429 -0.06438,-0.009 -0.07726,-0.0515 -0.01288,-0.0472 0.03863,-0.11589 0.06868,-0.1116 0.356255,-0.28758 0.287579,-0.17599 0.665296,-0.4421 0.382008,-0.27041 0.540821,-0.46786 0.163104,-0.20173 0.364839,-0.60091 0.201735,-0.39918 0.36484,-0.80265 0.167397,-0.40776 0.236072,-0.55369 0.07297,-0.15023 0.154521,-0.14165 0.07297,0.0129 0.07297,0.12877 z" />
        <path
           inkscape:connector-curvature="0"
           id="path890"
           style="font-style:normal;font-variant:normal;font-weight:normal;font-stretch:normal;font-size:medium;line-height:1.25;font-family:IranNastaliq;-inkscape-font-specification:IranNastaliq;letter-spacing:0px;word-spacing:0px;fill:#ffffff;fill-opacity:1;stroke:none;stroke-width:1.48640835;stroke-miterlimit:4;stroke-dasharray:none"
           d="m -28.699392,218.1334 q 0.02084,0.1638 0.0092,0.32363 -0.0075,0.15864 -0.05558,0.45426 -0.04397,0.29442 -0.05791,0.3387 -0.05334,0.1854 -0.127527,0.20698 -0.06436,-0.0215 -0.119306,-0.0413 -0.052,-0.0251 -0.08909,-0.0143 -0.156611,0.0456 -0.37496,0.24767 -0.214228,0.20091 -0.437666,0.56989 -0.220516,0.36367 -0.318744,0.65599 -0.09942,0.2882 -0.07304,0.37887 0.03957,0.136 0.147706,0.185 0.09097,0.0361 0.302135,0.0551 0.215298,0.0179 0.291498,0.0493 0.242713,0.0814 0.363826,0.49762 0.166678,0.57286 0.164089,1.37825 3.34e-4,0.80008 -0.191697,1.44601 -0.108191,0.30417 -0.278201,0.62632 -0.164695,0.32507 -0.388061,0.58675 -0.429726,0.505 -1.12211,0.70645 -0.790777,0.21665 -1.349872,-0.18391 -0.262203,-0.2098 -0.418602,-0.48615 -0.156402,-0.27635 -0.234343,-0.54423 -0.09833,-0.33796 -0.1436,-0.67793 -0.04527,-0.33998 -0.03697,-0.69554 0.006,-0.57841 0.08882,-1.13892 0.0869,-0.56172 0.142412,-0.90866 l 0.108624,-0.70214 q 0.01948,-0.11742 0.04428,-0.23193 0.02892,-0.11569 0.07426,-0.12888 0.06182,-0.018 0.0906,0.0809 0.03291,0.0977 0.02256,0.15436 -0.01437,0.19641 -0.02786,0.33444 -0.01469,0.13391 -0.04644,0.39348 -0.03296,0.25545 -0.07042,0.55691 -0.03865,0.29735 -0.06247,0.49202 -0.08208,1.06992 0.05821,1.55211 0.147494,0.50693 0.592386,0.69934 0.449013,0.19121 1.104305,5.5e-4 0.544015,-0.15828 0.976592,-0.5613 0.324003,-0.29989 0.496262,-0.64505 0.17638,-0.34636 0.238712,-0.62377 0.06233,-0.27741 0.0072,-0.46699 -0.03477,-0.11951 -0.22758,-0.12153 -0.189886,-0.007 -0.272996,-0.001 -0.08431,0.002 -0.197611,-0.0185 -0.215954,-0.0355 -0.355645,-0.14686 -0.139681,-0.11134 -0.20923,-0.35038 -0.106723,-0.3668 -0.03489,-0.99565 0.07476,-0.63417 0.349214,-1.30409 0.224928,-0.54823 0.433081,-0.9083 0.11464,-0.18981 0.300916,-0.4407 0.190396,-0.25209 0.378698,-0.44992 0.233484,-0.24228 0.387022,-0.31377 0.06594,-0.0192 0.10746,0.0313 0.04031,0.0464 0.04235,0.0994 z" />
      </g>
      <g
         style="stroke-width:1.43215907;stroke-miterlimit:4;stroke-dasharray:none"
         transform="matrix(0.86688812,-0.31361986,0.31361986,0.86688812,-62.430939,-47.41074)"
         id="g942">
        <path
           inkscape:connector-curvature="0"
           id="path892"
           style="font-style:normal;font-variant:normal;font-weight:normal;font-stretch:normal;font-size:medium;line-height:1.25;font-family:IranNastaliq;-inkscape-font-specification:IranNastaliq;letter-spacing:0px;word-spacing:0px;fill:#ffffff;fill-opacity:1;stroke:none;stroke-width:1.43215907;stroke-miterlimit:4;stroke-dasharray:none"
           d="m -34.356192,219.5378 q -0.152965,0.44248 -0.270152,0.79714 -0.111841,0.3518 -0.215735,0.58936 -0.210859,0.51456 -0.492128,0.8775 -0.275912,0.36008 -0.407567,0.468 -0.127553,0.10916 -0.203817,0.15322 -0.08449,0.0416 -0.115154,0.01 -0.02657,-0.0306 -0.0033,-0.0773 0.0038,-0.0123 0.187888,-0.35103 0.184132,-0.33873 0.303272,-0.67036 0.124498,-0.33449 0.300096,-0.95404 0.176834,-0.62367 0.318109,-0.93958 0.08225,-0.18133 0.202357,-0.36906 0.120107,-0.18773 0.252881,-0.35814 0.138126,-0.17325 0.274101,-0.32473 0.135966,-0.15147 0.247102,-0.26566 0.08377,-0.0686 0.118578,-0.0356 0.03603,0.029 0.0169,0.077 -0.01698,0.0262 -0.05936,0.121 -0.03703,0.0919 -0.09068,0.22365 -0.04831,0.12886 -0.102855,0.27825 -0.05457,0.14939 -0.107866,0.29468 -0.04796,0.14244 -0.08965,0.26435 -0.04169,0.12189 -0.06299,0.19169 z" />
        <path
           inkscape:connector-curvature="0"
           id="path894"
           style="font-style:normal;font-variant:normal;font-weight:normal;font-stretch:normal;font-size:medium;line-height:1.25;font-family:IranNastaliq;-inkscape-font-specification:IranNastaliq;letter-spacing:0px;word-spacing:0px;fill:#ffffff;fill-opacity:1;stroke:none;stroke-width:1.43215907;stroke-miterlimit:4;stroke-dasharray:none"
           d="m -39.383741,219.12252 q 0,0.23178 0.0043,0.34338 0,0.15881 0.07297,0.41205 0.07726,0.19744 0.257534,0.32621 0.171689,0.12877 0.46356,0.12877 0.399178,0 0.630958,-0.21891 0.309041,-0.28758 0.416347,-0.33479 0.07297,-0.0301 0.163104,-0.009 0.09443,0.0172 0.197443,0.009 0.11589,0 0.218904,-0.26183 0.103013,-0.26612 0.141643,-0.28758 0.03863,-0.0215 0.09014,-0.009 0.150228,0.0515 0.206027,0.0515 0.111598,0 0.19315,-0.15023 0.03434,-0.0515 0.111598,-0.27041 0.06438,-0.18457 0.103014,-0.18457 0.05151,0 0.05151,0.11589 0,0.43781 -0.253242,0.84986 -0.261826,0.41206 -0.532236,0.41206 -0.175982,0.24895 -0.201735,0.2747 -0.171689,0.20173 -0.313333,0.20173 -0.141644,-0.0258 -0.236073,-0.0258 -0.09443,0 -0.201734,0.0515 -0.128767,0.0515 -0.489315,0.52794 -0.360547,0.46786 -0.781186,0.46786 -0.454976,0 -0.669587,-0.40347 -0.197443,-0.39918 -0.197443,-0.98722 0.107306,-0.47643 0.236073,-0.7726 0.124474,-0.30904 0.244657,-0.30904 0.02575,0 0.07297,0.0515 z" />
        <path
           inkscape:connector-curvature="0"
           id="path896"
           style="font-style:normal;font-variant:normal;font-weight:normal;font-stretch:normal;font-size:medium;line-height:1.25;font-family:IranNastaliq;-inkscape-font-specification:IranNastaliq;letter-spacing:0px;word-spacing:0px;fill:#ffffff;fill-opacity:1;stroke:none;stroke-width:1.43215907;stroke-miterlimit:4;stroke-dasharray:none"
           d="m -39.362282,218.77485 q -0.0086,0.25324 -0.03005,0.61808 -0.01717,0.36055 -0.02146,0.51077 -0.02146,0.50649 -0.107306,0.84986 -0.08155,0.33909 -0.150228,0.54083 -0.06009,0.19315 -0.167397,0.45497 -0.103013,0.25754 -0.296163,0.54941 -0.188859,0.28758 -0.382009,0.46785 -0.300456,0.25753 -0.63525,0.25324 -0.175981,-0.009 -0.317625,-0.0901 -0.133059,-0.0901 -0.248949,-0.21891 -0.103014,-0.0858 -0.128767,-0.1116 -0.09014,-0.0815 -0.09014,-0.17169 0,-0.0644 0.06438,-0.15022 0.06438,-0.0816 0.145936,-0.18457 0.03863,-0.0515 0.103014,-0.15452 0.06438,-0.10301 0.111598,-0.2747 0.05151,-0.17169 0.08155,-0.44639 0.02575,-0.279 0.03434,-0.47644 l 0.01288,-0.39918 q 0.0043,-0.20603 0,-0.43351 0.01288,-0.59233 0.206027,-1.28767 0.133059,-0.46786 0.429223,-1.26621 0.02146,-0.0515 0.03863,-0.0687 0.02146,-0.0215 0.03434,-0.0215 0.04292,0.004 0.03863,0.24466 -0.0086,0.11589 -0.02575,0.37342 -0.02146,0.26183 -0.02575,0.3348 l -0.141644,1.67397 q -0.01288,0.30045 -0.07297,0.68675 -0.06438,0.37343 -0.184565,0.72968 -0.167397,0.51936 -0.433516,0.89279 0.01288,0.0257 0.103014,0.0257 l 0.163105,0.009 q 0.351962,0.0129 0.703925,-0.26611 0.356255,-0.28329 0.450684,-0.59233 0.09872,-0.31333 0.107306,-0.63096 0.04292,-0.72539 0.06868,-1.26192 0.02575,-0.54082 0.08155,-0.87561 0.0558,-0.33479 0.175982,-0.72539 0.124474,-0.39488 0.3863,-1.01726 0.03863,-0.0644 0.07297,-0.0515 0.03005,0.0129 -0.03004,0.50648 -0.06009,0.48932 -0.124475,1.45507 z" />
        <path
           inkscape:connector-curvature="0"
           id="path898"
           style="font-style:normal;font-variant:normal;font-weight:normal;font-stretch:normal;font-size:medium;line-height:1.25;font-family:IranNastaliq;-inkscape-font-specification:IranNastaliq;letter-spacing:0px;word-spacing:0px;fill:#ffffff;fill-opacity:1;stroke:none;stroke-width:1.43215907;stroke-miterlimit:4;stroke-dasharray:none"
           d="m -45.307021,220.22562 q 0.07297,-0.12877 0.236073,-0.36055 0.163105,-0.23178 0.356255,-0.4421 0.193151,-0.21461 0.394885,-0.3863 0.21032,-0.16739 0.274703,-0.25753 0.06438,-0.073 0.06438,-0.12877 0,-0.0472 -0.115891,-0.10301 -0.11589,-0.0644 -0.09014,-0.16311 l 0.257533,-0.57945 q 0.111598,-0.19744 0.201735,-0.37771 0.133059,-0.20174 0.261826,-0.18886 0.424931,0.0773 0.665296,0.25324 0.244657,0.17169 0.244657,0.35196 0,0.26612 -0.227488,0.5537 -0.223196,0.30904 -0.467853,0.43781 -0.214612,0.11589 -0.36484,0.20602 -0.145936,0.0858 -0.240365,0.13736 -0.356255,0.2189 -0.523652,0.36054 -0.167397,0.14165 -0.360547,0.36484 -0.193151,0.21891 -0.223196,0.32192 -0.180274,0.1116 -0.343379,0 z" />
        <path
           inkscape:connector-curvature="0"
           id="path900"
           style="font-style:normal;font-variant:normal;font-weight:normal;font-stretch:normal;font-size:medium;line-height:1.25;font-family:IranNastaliq;-inkscape-font-specification:IranNastaliq;letter-spacing:0px;word-spacing:0px;fill:#ffffff;fill-opacity:1;stroke:none;stroke-width:1.43215907;stroke-miterlimit:4;stroke-dasharray:none"
           d="m -44.723277,222.13566 q 0,-0.1073 -0.463561,-0.32191 -0.472145,-0.21891 -0.472145,-0.53224 0,-0.22749 0.09872,-0.51078 0.103013,-0.28758 0.244657,-0.54511 0.03005,-0.0429 0.08155,-0.0644 0.0558,-0.0215 0.107306,-0.0215 0.0558,0 0.09872,0.0215 0.04292,0.0215 0.05151,0.0644 0,0.0901 0.145936,0.18027 0.145936,0.0901 0.291872,0.19745 0.150228,0.10301 0.214611,0.24036 0.06438,0.14594 0.06438,0.43781 0,0.42493 -0.111598,0.86703 -0.107306,0.43351 -0.40347,1.06877 -0.472145,0.98721 -1.274792,1.57095 -0.296164,0.18886 -0.579451,0.28329 -0.309041,0.10301 -0.665296,0.10301 -0.828401,0 -1.274792,-0.61808 -0.377717,-0.52794 -0.377717,-1.35205 0,-0.36484 0.154521,-0.95717 0.15452,-0.57516 0.321917,-0.9915 0.180274,-0.43352 0.30904,-0.72968 0.03863,-0.0687 0.107306,-0.21461 0.07297,-0.14594 0.184566,-0.37772 0.07726,-0.15881 0.124475,-0.26612 0.05151,-0.10731 0.103013,-0.19744 0.103014,-0.17169 0.154521,-0.1674 0.07297,0.0129 0.03863,0.15023 -0.03434,0.15881 -0.08585,0.2747 -0.454976,1.05589 -0.626666,1.47653 -0.304748,0.76402 -0.304748,1.18465 0,0.78977 0.489314,1.13315 0.360548,0.23608 0.935706,0.23608 1.030136,0 1.725477,-0.57946 0.592328,-0.4936 0.592328,-1.04301 z" />
      </g>
      <g
         style="stroke-width:1.39509177;stroke-miterlimit:4;stroke-dasharray:none"
         transform="matrix(0.6842616,-0.65375785,0.65375785,0.6842616,-147.25556,-23.352404)"
         id="g935">
        <path
           inkscape:connector-curvature="0"
           id="path902"
           style="font-style:normal;font-variant:normal;font-weight:normal;font-stretch:normal;font-size:medium;line-height:1.25;font-family:IranNastaliq;-inkscape-font-specification:IranNastaliq;letter-spacing:0px;word-spacing:0px;fill:#ffffff;fill-opacity:1;stroke:none;stroke-width:1.39509177;stroke-miterlimit:4;stroke-dasharray:none"
           d="m -49.895414,219.40151 q -0.01717,0.46786 -0.02575,0.84128 -0.0043,0.36913 -0.03434,0.62667 -0.05151,0.55369 -0.214612,0.98292 -0.158812,0.42493 -0.253241,0.56657 -0.09014,0.14164 -0.150228,0.20603 -0.06868,0.0644 -0.107306,0.0429 -0.03434,-0.0215 -0.02575,-0.073 0,-0.0129 0.07726,-0.39059 0.07726,-0.37772 0.09443,-0.72968 0.02146,-0.35626 0.0086,-1.00009 -0.01288,-0.64813 0.03005,-0.99151 0.02575,-0.19744 0.08585,-0.41205 0.06009,-0.21461 0.137351,-0.41635 0.08155,-0.20602 0.167397,-0.39059 0.08584,-0.18456 0.158812,-0.32621 0.06009,-0.0901 0.103014,-0.0687 0.04292,0.0172 0.03863,0.0687 -0.0086,0.03 -0.02146,0.13306 -0.0086,0.0987 -0.02146,0.24037 -0.0086,0.13735 -0.01717,0.29616 -0.0086,0.15881 -0.01717,0.31333 -0.0043,0.15023 -0.0086,0.279 -0.0043,0.12876 -0.0043,0.20173 z" />
        <path
           inkscape:connector-curvature="0"
           id="path904"
           style="font-style:normal;font-variant:normal;font-weight:normal;font-stretch:normal;font-size:medium;line-height:1.25;font-family:IranNastaliq;-inkscape-font-specification:IranNastaliq;letter-spacing:0px;word-spacing:0px;fill:#ffffff;fill-opacity:1;stroke:none;stroke-width:1.39509177;stroke-miterlimit:4;stroke-dasharray:none"
           d="m -51.062901,219.03238 q -0.321918,1.14603 -0.721095,1.34776 -0.55799,0.27041 -0.682465,0.36055 -0.120182,0.0944 -0.158812,0.14593 -0.128767,0.18028 -0.253242,0.46356 -0.210319,0.54083 -0.339086,0.8327 -0.214611,0.4421 -0.630958,0.63096 -0.201735,0.0773 -0.527944,0.13305 -0.343378,0.073 -0.536529,0.073 -0.167397,0.0172 -0.210319,-0.0773 -0.01288,-0.0601 0.128767,-0.1631 0.05151,-0.0386 0.218904,-0.16311 0.167397,-0.12447 0.59662,-0.39488 0.334794,-0.22749 0.317625,-0.21461 0.373424,-0.27041 0.515067,-0.46356 0.04292,-0.0558 0.300456,-0.64384 0.266119,-0.58374 0.399178,-0.75972 0.137351,-0.18028 0.42493,-0.36484 0.111598,-0.0601 0.382009,-0.20174 0.236073,-0.11589 0.334794,-0.19744 0.09014,-0.0773 0.23178,-0.33479 0.141644,-0.25325 0.197443,-0.24466 0.06009,0.0172 0.01288,0.23607 z m -2.249129,7.56291 q 0,0.0386 0.188858,0.19315 0.193151,0.15452 0.283287,0.23178 0.09443,0.0815 0.145936,0.0815 0.206027,0 0.553698,-0.69963 0.141643,0.10301 0.326209,0.28758 0.188858,0.18886 0.261826,0.18886 0.107306,0 0.339087,-0.3305 0.240364,-0.3348 0.240364,-0.57946 -0.01288,-0.20602 -0.236072,-0.4421 -0.223196,-0.23178 -0.382009,-0.23178 -0.0558,0.004 -0.214611,0.26612 -0.15452,0.26183 -0.283287,0.47215 -0.107306,-0.15452 -0.317625,-0.35626 -0.21032,-0.20173 -0.317625,-0.15881 -0.06438,0.03 -0.32621,0.51078 -0.261826,0.48073 -0.261826,0.56657 z" />
        <path
           inkscape:connector-curvature="0"
           id="path906"
           style="font-style:normal;font-variant:normal;font-weight:normal;font-stretch:normal;font-size:medium;line-height:1.25;font-family:IranNastaliq;-inkscape-font-specification:IranNastaliq;letter-spacing:0px;word-spacing:0px;fill:#ffffff;fill-opacity:1;stroke:none;stroke-width:1.39509177;stroke-miterlimit:4;stroke-dasharray:none"
           d="m -55.200611,219.40151 q -0.01717,0.46786 -0.02575,0.84128 -0.0043,0.36913 -0.03434,0.62667 -0.05151,0.55369 -0.214611,0.98292 -0.158813,0.42493 -0.253242,0.56657 -0.09014,0.14164 -0.150228,0.20603 -0.06868,0.0644 -0.107306,0.0429 -0.03434,-0.0215 -0.02575,-0.073 0,-0.0129 0.07726,-0.39059 0.07726,-0.37772 0.09443,-0.72968 0.02146,-0.35626 0.0086,-1.00009 -0.01288,-0.64813 0.03004,-0.99151 0.02575,-0.19744 0.08585,-0.41205 0.06009,-0.21461 0.137351,-0.41635 0.08155,-0.20602 0.167397,-0.39059 0.08584,-0.18456 0.158813,-0.32621 0.06009,-0.0901 0.103013,-0.0687 0.04292,0.0172 0.03863,0.0687 -0.0086,0.03 -0.02146,0.13306 -0.0086,0.0987 -0.02146,0.24037 -0.0086,0.13735 -0.01717,0.29616 -0.0086,0.15881 -0.01717,0.31333 -0.0043,0.15023 -0.0086,0.279 -0.0043,0.12876 -0.0043,0.20173 z" />
        <path
           inkscape:connector-curvature="0"
           id="path908"
           style="font-style:normal;font-variant:normal;font-weight:normal;font-stretch:normal;font-size:medium;line-height:1.25;font-family:IranNastaliq;-inkscape-font-specification:IranNastaliq;letter-spacing:0px;word-spacing:0px;fill:#ffffff;fill-opacity:1;stroke:none;stroke-width:1.39509177;stroke-miterlimit:4;stroke-dasharray:none"
           d="m -58.715947,220.91667 q 0.02575,0.12877 -0.02146,0.28329 -0.04292,0.15452 -0.145936,0.34767 -0.09872,0.18886 -0.266118,0.34767 -0.107306,0.10301 -0.17169,0.10301 -0.03863,0 -0.180273,-0.1116 -0.137352,-0.11159 -0.24895,-0.20602 -0.111598,-0.0944 -0.19315,-0.17169 -0.08155,-0.0773 -0.08155,-0.12877 0.08584,-0.17169 0.124474,-0.26183 0.128767,-0.29187 0.218904,-0.45926 0.09443,-0.1674 0.296164,-0.49361 0.11589,0.0944 0.283287,0.22749 0.171689,0.13306 0.266118,0.24895 0.09443,0.11589 0.120183,0.2747 z m 1.94438,-0.63096 q -0.11589,2.02164 -1.171779,3.47671 -1.043012,1.41214 -2.506662,1.42502 -0.759725,-0.0343 -1.206117,-0.50219 -0.442099,-0.46356 -0.467853,-1.29626 -0.0043,-1.31342 0.862738,-2.85004 0.167397,-0.30904 0.197443,-0.19744 0.03434,0.1116 -0.0043,0.22749 -0.570867,1.13315 -0.583743,1.95726 0.02575,0.61808 0.437807,0.93999 0.416346,0.32192 1.098811,0.34768 0.836985,0 1.609586,-0.4421 0.768309,-0.51078 1.068766,-1.36064 0.11589,-0.29617 0.11589,-0.78548 0,-0.18457 -0.0043,-0.47215 0,-0.28757 0,-0.40776 0.02575,-0.35625 0.167397,-0.78118 0.141644,-0.42923 0.231781,-0.62238 0.09443,-0.19315 0.158812,-0.19315 0.04722,0 0.03863,0.0987 -0.0043,0.0987 -0.01717,0.38201 -0.01288,0.28329 -0.02575,1.05589 z" />
      </g>
      <circle
         transform="scale(-1,1)"
         r="23.21349"
         cy="177.64067"
         cx="20.290232"
         id="circle977"
         style="opacity:1;fill:none;fill-opacity:1;stroke:none;stroke-width:0.36476466;stroke-linecap:round;stroke-linejoin:round;stroke-miterlimit:4;stroke-dasharray:none;stroke-dashoffset:0;stroke-opacity:1" />
      <g
         id="text983"
         style="font-style:normal;font-weight:normal;font-size:3.94162107px;line-height:1.25;font-family:sans-serif;letter-spacing:0px;word-spacing:0px;fill:#ffffff;fill-opacity:1;stroke:none;stroke-width:0.098425;stroke-miterlimit:4;stroke-dasharray:none"
         transform="translate(0,-1.0583333)"
         aria-label="OFFICE OF THE PRESIDENT OF">
        <path
           inkscape:connector-curvature="0"
           id="path1106"
           style="font-style:normal;font-variant:normal;font-weight:bold;font-stretch:normal;font-size:3.52777767px;font-family:ARIAL;-inkscape-font-specification:'ARIAL Bold';letter-spacing:0px;fill:#ffffff;stroke:#f0fff0;stroke-width:0.098425;stroke-linecap:round;stroke-linejoin:round;stroke-miterlimit:4;stroke-dasharray:none;stroke-opacity:1"
           d="m -40.436128,186.49559 q 0.343957,-0.17485 0.629657,-0.19062 0.211009,-0.0106 0.414802,0.0519 0.204574,0.0641 0.351003,0.18871 0.196003,0.16509 0.33573,0.43995 0.252915,0.49751 0.09571,0.9523 -0.156423,0.45633 -0.706141,0.73579 -0.545111,0.27711 -1.004407,0.13765 -0.457761,-0.14023 -0.709895,-0.63621 -0.255256,-0.50211 -0.100343,-0.95381 0.156449,-0.45248 0.693883,-0.72569 z m 0.253438,0.46053 q -0.382345,0.19437 -0.490659,0.47166 -0.106778,0.2765 0.03139,0.54829 0.138166,0.27178 0.421386,0.34616 0.285535,0.0751 0.677094,-0.12392 0.386952,-0.19671 0.49071,-0.46395 0.104539,-0.2657 -0.03831,-0.5467 -0.142849,-0.281 -0.423753,-0.35462 -0.279367,-0.0744 -0.667855,0.12308 z" />
        <path
           inkscape:connector-curvature="0"
           id="path1108"
           style="font-style:normal;font-variant:normal;font-weight:bold;font-stretch:normal;font-size:3.52777767px;font-family:ARIAL;-inkscape-font-specification:'ARIAL Bold';letter-spacing:0px;fill:#ffffff;stroke:#f0fff0;stroke-width:0.098425;stroke-linecap:round;stroke-linejoin:round;stroke-miterlimit:4;stroke-dasharray:none;stroke-opacity:1"
           d="m -40.218253,189.58101 2.117855,-1.37535 0.942859,1.45187 -0.358272,0.23266 -0.665162,-1.02425 -0.501293,0.32554 0.574159,0.88413 -0.358273,0.23266 -0.574159,-0.88412 -0.900016,0.58448 z" />
        <path
           inkscape:connector-curvature="0"
           id="path1110"
           style="font-style:normal;font-variant:normal;font-weight:bold;font-stretch:normal;font-size:3.52777767px;font-family:ARIAL;-inkscape-font-specification:'ARIAL Bold';letter-spacing:0px;fill:#ffffff;stroke:#f0fff0;stroke-width:0.098425;stroke-linecap:round;stroke-linejoin:round;stroke-miterlimit:4;stroke-dasharray:none;stroke-opacity:1"
           d="m -39.023123,191.37688 1.981557,-1.56536 1.073114,1.35844 -0.335216,0.2648 -0.757052,-0.95833 -0.469032,0.37051 0.653478,0.82723 -0.335215,0.26481 -0.653478,-0.82723 -0.842094,0.66522 z" />
        <path
           inkscape:connector-curvature="0"
           id="path1112"
           style="font-style:normal;font-variant:normal;font-weight:bold;font-stretch:normal;font-size:3.52777767px;font-family:ARIAL;-inkscape-font-specification:'ARIAL Bold';letter-spacing:0px;fill:#ffffff;stroke:#f0fff0;stroke-width:0.098425;stroke-linecap:round;stroke-linejoin:round;stroke-miterlimit:4;stroke-dasharray:none;stroke-opacity:1"
           d="m -37.670128,193.03153 1.872012,-1.69484 0.342205,0.37797 -1.872012,1.69484 z" />
        <path
           inkscape:connector-curvature="0"
           id="path1114"
           style="font-style:normal;font-variant:normal;font-weight:bold;font-stretch:normal;font-size:3.52777767px;font-family:ARIAL;-inkscape-font-specification:'ARIAL Bold';letter-spacing:0px;fill:#ffffff;stroke:#f0fff0;stroke-width:0.098425;stroke-linecap:round;stroke-linejoin:round;stroke-miterlimit:4;stroke-dasharray:none;stroke-opacity:1"
           d="m -35.198797,194.21539 0.250572,0.45408 q -0.367104,0.22151 -0.698245,0.18501 -0.328705,-0.0366 -0.623505,-0.31649 -0.364752,-0.34633 -0.363561,-0.8179 0.0024,-0.47281 0.412761,-0.90502 0.434106,-0.45719 0.909785,-0.48534 0.476864,-0.0294 0.861602,0.3359 0.336022,0.31906 0.357292,0.71693 0.01342,0.23603 -0.13287,0.51519 l -0.449027,-0.26008 q 0.102735,-0.17325 0.07734,-0.35413 -0.02415,-0.17971 -0.171548,-0.31967 -0.203612,-0.19333 -0.469797,-0.16816 -0.264936,0.0264 -0.575689,0.35364 -0.329732,0.34726 -0.344775,0.61327 -0.01504,0.26601 0.184822,0.45578 0.147399,0.13996 0.342534,0.14709 0.195134,0.007 0.432312,-0.1501 z" />
        <path
           inkscape:connector-curvature="0"
           id="path1116"
           style="font-style:normal;font-variant:normal;font-weight:bold;font-stretch:normal;font-size:3.52777767px;font-family:ARIAL;-inkscape-font-specification:'ARIAL Bold';letter-spacing:0px;fill:#ffffff;stroke:#f0fff0;stroke-width:0.098425;stroke-linecap:round;stroke-linejoin:round;stroke-miterlimit:4;stroke-dasharray:none;stroke-opacity:1"
           d="m -35.138563,195.50872 1.537069,-2.00358 1.485601,1.13969 -0.260023,0.33894 -1.081058,-0.82934 -0.340755,0.44417 1.005889,0.77169 -0.258974,0.33757 -1.00589,-0.77168 -0.418342,0.54531 1.119325,0.85871 -0.258974,0.33757 z" />
        <path
           inkscape:connector-curvature="0"
           id="path1118"
           style="font-style:normal;font-variant:normal;font-weight:bold;font-stretch:normal;font-size:3.52777767px;font-family:ARIAL;-inkscape-font-specification:'ARIAL Bold';letter-spacing:0px;fill:#ffffff;stroke:#f0fff0;stroke-width:0.098425;stroke-linecap:round;stroke-linejoin:round;stroke-miterlimit:4;stroke-dasharray:none;stroke-opacity:1"
           d="m -31.923081,196.31745 q 0.185866,-0.33813 0.413127,-0.51199 0.168409,-0.12758 0.372077,-0.19056 0.205177,-0.0622 0.396338,-0.0416 0.254931,0.0261 0.525137,0.17465 0.489087,0.26884 0.615154,0.73323 0.127577,0.46522 -0.169476,1.00563 -0.294564,0.53588 -0.752684,0.67915 -0.45729,0.14177 -0.944867,-0.12624 -0.493616,-0.27134 -0.619833,-0.73187 -0.125388,-0.46205 0.165027,-0.99039 z m 0.468704,0.23798 q -0.20661,0.37588 -0.140053,0.66603 0.06739,0.28864 0.334574,0.4355 0.267186,0.14687 0.543142,0.0489 0.278295,-0.0986 0.489883,-0.48355 0.209099,-0.3804 0.144431,-0.65969 -0.06316,-0.27845 -0.339402,-0.4303 -0.276244,-0.15184 -0.54986,-0.0546 -0.272787,0.0958 -0.482715,0.47767 z" />
        <path
           inkscape:connector-curvature="0"
           id="path1120"
           style="font-style:normal;font-variant:normal;font-weight:bold;font-stretch:normal;font-size:3.52777767px;font-family:ARIAL;-inkscape-font-specification:'ARIAL Bold';letter-spacing:0px;fill:#ffffff;stroke:#f0fff0;stroke-width:0.098425;stroke-linecap:round;stroke-linejoin:round;stroke-miterlimit:4;stroke-dasharray:none;stroke-opacity:1"
           d="m -30.006306,198.74514 0.975551,-2.32921 1.596763,0.66878 -0.165032,0.39402 -1.126472,-0.4718 -0.230912,0.55132 0.972357,0.40725 -0.165032,0.39403 -0.972357,-0.40725 -0.414576,0.98983 z" />
        <path
           inkscape:connector-curvature="0"
           id="path1122"
           style="font-style:normal;font-variant:normal;font-weight:bold;font-stretch:normal;font-size:3.52777767px;font-family:ARIAL;-inkscape-font-specification:'ARIAL Bold';letter-spacing:0px;fill:#ffffff;stroke:#f0fff0;stroke-width:0.098425;stroke-linecap:round;stroke-linejoin:round;stroke-miterlimit:4;stroke-dasharray:none;stroke-opacity:1"
           d="m -26.531355,200.007 0.540556,-2.02723 -0.724011,-0.19306 0.110064,-0.41277 1.939019,0.51704 -0.110064,0.41277 -0.722347,-0.19261 -0.540557,2.02723 z" />
        <path
           inkscape:connector-curvature="0"
           id="path1124"
           style="font-style:normal;font-variant:normal;font-weight:bold;font-stretch:normal;font-size:3.52777767px;font-family:ARIAL;-inkscape-font-specification:'ARIAL Bold';letter-spacing:0px;fill:#ffffff;stroke:#f0fff0;stroke-width:0.098425;stroke-linecap:round;stroke-linejoin:round;stroke-miterlimit:4;stroke-dasharray:none;stroke-opacity:1"
           d="m -24.989674,200.40095 0.399047,-2.49352 0.503468,0.0806 -0.15706,0.98142 0.986524,0.15788 0.157061,-0.98142 0.503467,0.0806 -0.399047,2.49352 -0.503468,-0.0806 0.174481,-1.09028 -0.986524,-0.15788 -0.174482,1.09028 z" />
        <path
           inkscape:connector-curvature="0"
           id="path1126"
           style="font-style:normal;font-variant:normal;font-weight:bold;font-stretch:normal;font-size:3.52777767px;font-family:ARIAL;-inkscape-font-specification:'ARIAL Bold';letter-spacing:0px;fill:#ffffff;stroke:#f0fff0;stroke-width:0.098425;stroke-linecap:round;stroke-linejoin:round;stroke-miterlimit:4;stroke-dasharray:none;stroke-opacity:1"
           d="m -22.468184,200.77147 0.13482,-2.52165 1.869739,0.1 -0.02281,0.42658 -1.360592,-0.0727 -0.02989,0.55903 1.265987,0.0677 -0.02272,0.42486 -1.265987,-0.0677 -0.03669,0.68632 1.408755,0.0753 -0.02272,0.42486 z" />
        <path
           inkscape:connector-curvature="0"
           id="path1128"
           style="font-style:normal;font-variant:normal;font-weight:bold;font-stretch:normal;font-size:3.52777767px;font-family:ARIAL;-inkscape-font-specification:'ARIAL Bold';letter-spacing:0px;fill:#ffffff;stroke:#f0fff0;stroke-width:0.098425;stroke-linecap:round;stroke-linejoin:round;stroke-miterlimit:4;stroke-dasharray:none;stroke-opacity:1"
           d="m -19.133739,200.84409 -0.222916,-2.5154 0.815016,-0.0722 q 0.463272,-0.0411 0.607315,-0.0158 0.221211,0.0375 0.383935,0.21499 0.162571,0.17582 0.189181,0.47609 0.02053,0.23163 -0.04956,0.39694 -0.07009,0.16531 -0.19243,0.2678 -0.12078,0.10063 -0.252029,0.14166 -0.178684,0.0522 -0.523564,0.0827 l -0.331154,0.0294 0.08409,0.94885 z m 0.322678,-2.13488 0.06325,0.71378 0.277964,-0.0246 q 0.300269,-0.0266 0.398005,-0.0751 0.09774,-0.0484 0.146908,-0.13753 0.05089,-0.0892 0.041,-0.20077 -0.01216,-0.13727 -0.100715,-0.21934 -0.08855,-0.0821 -0.214067,-0.0934 -0.09246,-0.009 -0.366991,0.0152 z" />
        <path
           inkscape:connector-curvature="0"
           id="path1130"
           style="font-style:normal;font-variant:normal;font-weight:bold;font-stretch:normal;font-size:3.52777767px;font-family:ARIAL;-inkscape-font-specification:'ARIAL Bold';letter-spacing:0px;fill:#ffffff;stroke:#f0fff0;stroke-width:0.098425;stroke-linecap:round;stroke-linejoin:round;stroke-miterlimit:4;stroke-dasharray:none;stroke-opacity:1"
           d="m -16.785655,200.61396 -0.487019,-2.47785 1.053,-0.20697 q 0.397199,-0.0781 0.58965,-0.0457 0.193809,0.0304 0.335535,0.17982 0.141727,0.14945 0.184914,0.36918 0.05481,0.27888 -0.07326,0.49365 -0.128404,0.21307 -0.445313,0.32452 0.180864,0.0628 0.307915,0.1554 0.128741,0.0923 0.364711,0.34613 l 0.39756,0.42393 -0.598334,0.11761 -0.46768,-0.46809 q -0.249492,-0.25115 -0.335098,-0.31157 -0.08594,-0.0621 -0.170693,-0.0735 -0.08509,-0.0131 -0.257489,0.0208 l -0.101412,0.0199 0.203312,1.03441 z m 0.219253,-1.52825 0.370156,-0.0728 q 0.360014,-0.0708 0.443615,-0.11879 0.0836,-0.048 0.119691,-0.13237 0.03609,-0.0843 0.01416,-0.19589 -0.02458,-0.12507 -0.107141,-0.18784 -0.0812,-0.0648 -0.206882,-0.0612 -0.06251,0.004 -0.366746,0.0633 l -0.390438,0.0767 z" />
        <path
           inkscape:connector-curvature="0"
           id="path1132"
           style="font-style:normal;font-variant:normal;font-weight:bold;font-stretch:normal;font-size:3.52777767px;font-family:ARIAL;-inkscape-font-specification:'ARIAL Bold';letter-spacing:0px;fill:#ffffff;stroke:#f0fff0;stroke-width:0.098425;stroke-linecap:round;stroke-linejoin:round;stroke-miterlimit:4;stroke-dasharray:none;stroke-opacity:1"
           d="m -14.291637,200.09074 -0.747354,-2.41213 1.788531,-0.55414 0.126428,0.40805 -1.301498,0.40325 0.165683,0.53475 1.211001,-0.37521 0.125919,0.40641 -1.211002,0.37521 0.203407,0.65651 1.347568,-0.41752 0.125919,0.40641 z" />
        <path
           inkscape:connector-curvature="0"
           id="path1134"
           style="font-style:normal;font-variant:normal;font-weight:bold;font-stretch:normal;font-size:3.52777767px;font-family:ARIAL;-inkscape-font-specification:'ARIAL Bold';letter-spacing:0px;fill:#ffffff;stroke:#f0fff0;stroke-width:0.098425;stroke-linecap:round;stroke-linejoin:round;stroke-miterlimit:4;stroke-dasharray:none;stroke-opacity:1"
           d="m -12.488672,198.66265 0.437508,-0.23879 q 0.139088,0.21224 0.310189,0.26667 0.172685,0.0538 0.386627,-0.0374 0.22662,-0.0965 0.300218,-0.24022 0.07451,-0.14595 0.01983,-0.27432 -0.0351,-0.0824 -0.108534,-0.11853 -0.07252,-0.0384 -0.211189,-0.0299 -0.09456,0.007 -0.418791,0.0586 -0.417001,0.0672 -0.627194,-0.004 -0.295625,-0.10063 -0.413088,-0.37637 -0.07561,-0.1775 -0.04125,-0.37375 0.03527,-0.19851 0.189425,-0.35966 0.155742,-0.16183 0.423566,-0.27592 0.437393,-0.18632 0.739357,-0.0884 0.303549,0.0973 0.451007,0.41264 l -0.460312,0.22042 q -0.106393,-0.16625 -0.239311,-0.20137 -0.132009,-0.0374 -0.330103,0.047 -0.204434,0.0871 -0.284342,0.22036 -0.05153,0.0856 -0.01305,0.17594 0.0351,0.0824 0.12981,0.11134 0.120475,0.0367 0.497211,-0.0283 0.376736,-0.065 0.577094,-0.0474 0.201269,0.0154 0.357316,0.12677 0.156957,0.10914 0.250792,0.32942 0.08506,0.19968 0.04838,0.42125 -0.03668,0.22158 -0.20307,0.39357 -0.16707,0.1704 -0.469759,0.29934 -0.440562,0.18767 -0.763099,0.0854 -0.323213,-0.10384 -0.535238,-0.47412 z" />
        <path
           inkscape:connector-curvature="0"
           id="path1136"
           style="font-style:normal;font-variant:normal;font-weight:bold;font-stretch:normal;font-size:3.52777767px;font-family:ARIAL;-inkscape-font-specification:'ARIAL Bold';letter-spacing:0px;fill:#ffffff;stroke:#f0fff0;stroke-width:0.098425;stroke-linecap:round;stroke-linejoin:round;stroke-miterlimit:4;stroke-dasharray:none;stroke-opacity:1"
           d="m -9.9114305,198.41191 -1.1546345,-2.24583 0.453454,-0.23313 1.154635,2.24582 z" />
        <path
           inkscape:connector-curvature="0"
           id="path1138"
           style="font-style:normal;font-variant:normal;font-weight:bold;font-stretch:normal;font-size:3.52777767px;font-family:ARIAL;-inkscape-font-specification:'ARIAL Bold';letter-spacing:0px;fill:#ffffff;stroke:#f0fff0;stroke-width:0.098425;stroke-linecap:round;stroke-linejoin:round;stroke-miterlimit:4;stroke-dasharray:none;stroke-opacity:1"
           d="m -10.345128,195.81532 0.7939932,-0.48786 q 0.268578,-0.16503 0.4347212,-0.21051 0.2235931,-0.0606 0.4460884,-0.001 0.2224954,0.0594 0.4200929,0.22305 0.1966957,0.16219 0.3824622,0.46452 0.1632219,0.26564 0.2153112,0.49848 0.063564,0.28442 0.00314,0.5217 -0.045375,0.17951 -0.1997609,0.35928 -0.1158735,0.13388 -0.3565664,0.28177 l -0.8174752,0.50229 z m 0.6580627,0.097 0.8756272,1.42508 0.3243483,-0.1993 q 0.1819873,-0.11182 0.2500825,-0.18196 0.089438,-0.0914 0.1196406,-0.19684 0.03167,-0.10639 -0.012675,-0.27728 -0.045247,-0.17235 -0.1985493,-0.42185 -0.1533024,-0.24949 -0.2793935,-0.356 -0.126091,-0.1065 -0.2513343,-0.13265 -0.1252432,-0.0262 -0.2632893,0.0223 -0.1036186,0.0354 -0.3692613,0.19858 z" />
        <path
           inkscape:connector-curvature="0"
           id="path1140"
           style="font-style:normal;font-variant:normal;font-weight:bold;font-stretch:normal;font-size:3.52777767px;font-family:ARIAL;-inkscape-font-specification:'ARIAL Bold';letter-spacing:0px;fill:#ffffff;stroke:#f0fff0;stroke-width:0.098425;stroke-linecap:round;stroke-linejoin:round;stroke-miterlimit:4;stroke-dasharray:none;stroke-opacity:1"
           d="m -6.8659484,196.60347 -1.5410987,-2.00048 1.483304,-1.14269 0.2607043,0.33842 -1.0793868,0.83152 0.3416487,0.44349 1.0043347,-0.7737 0.259653,0.33705 -1.0043346,0.7737 0.4194395,0.54447 1.1175952,-0.86095 0.2596531,0.33705 z" />
        <path
           inkscape:connector-curvature="0"
           id="path1142"
           style="font-style:normal;font-variant:normal;font-weight:bold;font-stretch:normal;font-size:3.52777767px;font-family:ARIAL;-inkscape-font-specification:'ARIAL Bold';letter-spacing:0px;fill:#ffffff;stroke:#f0fff0;stroke-width:0.098425;stroke-linecap:round;stroke-linejoin:round;stroke-miterlimit:4;stroke-dasharray:none;stroke-opacity:1"
           d="m -5.0080238,195.14368 -1.7424731,-1.82776 0.3590685,-0.34232 1.911689,0.50743 -1.1636297,-1.22058 0.3428605,-0.32686 1.7424731,1.82775 -0.3702894,0.35302 -1.8731305,-0.48945 1.1362921,1.1919 z" />
        <path
           inkscape:connector-curvature="0"
           id="path1144"
           style="font-style:normal;font-variant:normal;font-weight:bold;font-stretch:normal;font-size:3.52777767px;font-family:ARIAL;-inkscape-font-specification:'ARIAL Bold';letter-spacing:0px;fill:#ffffff;stroke:#f0fff0;stroke-width:0.098425;stroke-linecap:round;stroke-linejoin:round;stroke-miterlimit:4;stroke-dasharray:none;stroke-opacity:1"
           d="m -2.8211848,192.93044 -1.5931139,-1.36523 -0.4875826,0.56897 -0.3243779,-0.27798 1.3058248,-1.52379 0.3243779,0.27798 -0.4864618,0.56766 1.5931139,1.36523 z" />
        <path
           inkscape:connector-curvature="0"
           id="path1146"
           style="font-style:normal;font-variant:normal;font-weight:bold;font-stretch:normal;font-size:3.52777767px;font-family:ARIAL;-inkscape-font-specification:'ARIAL Bold';letter-spacing:0px;fill:#ffffff;stroke:#f0fff0;stroke-width:0.098425;stroke-linecap:round;stroke-linejoin:round;stroke-miterlimit:4;stroke-dasharray:none;stroke-opacity:1"
           d="m -2.328918,190.34805 q -0.3266416,-0.20539 -0.4868571,-0.44246 -0.1174743,-0.17561 -0.1684001,-0.38262 -0.050009,-0.20847 -0.018269,-0.3981 0.041042,-0.25296 0.2051728,-0.51398 0.2970852,-0.47246 0.7680721,-0.57106 0.4719039,-0.10005 0.9939473,0.22821 0.5176687,0.32551 0.63380388,0.79125 0.11467697,0.46483 -0.18149126,0.93583 -0.29983595,0.47684 -0.76698952,0.57581 -0.4686117,0.0981 -0.9789891,-0.22288 z m 0.2650813,-0.45392 q 0.3630973,0.22831 0.6566548,0.1789 0.2920993,-0.0503 0.45439577,-0.30843 0.16229653,-0.25811 0.0807154,-0.53934 -0.0821224,-0.2836 -0.45396897,-0.51742 -0.3674719,-0.23106 -0.6500706,-0.1829 -0.2816817,0.0467 -0.4494798,0.31356 -0.1677981,0.26685 -0.086758,0.54571 0.079582,0.27793 0.4485114,0.50992 z" />
        <path
           inkscape:connector-curvature="0"
           id="path1148"
           style="font-style:normal;font-variant:normal;font-weight:bold;font-stretch:normal;font-size:3.52777767px;font-family:ARIAL;-inkscape-font-specification:'ARIAL Bold';letter-spacing:0px;fill:#ffffff;stroke:#f0fff0;stroke-width:0.098425;stroke-linecap:round;stroke-linejoin:round;stroke-miterlimit:4;stroke-dasharray:none;stroke-opacity:1"
           d="m 0.20718468,188.57716 -2.26763618,-1.11119 0.7617624,-1.55455 0.38361108,0.18798 -0.53740258,1.09669 0.53674609,0.26302 0.46387924,-0.94666 0.38361103,0.18798 -0.46387923,0.94666 0.96366805,0.47221 z" />
      </g>
      <circle
         style="opacity:1;fill:none;fill-opacity:1;stroke:none;stroke-width:0.4325344;stroke-linecap:round;stroke-linejoin:round;stroke-miterlimit:4;stroke-dasharray:none;stroke-dashoffset:0;stroke-opacity:1"
         id="circle988"
         cx="20.290232"
         cy="177.64067"
         r="27.526331"
         transform="scale(-1,1)" />
      <g
         id="text992"
         style="font-style:normal;font-weight:normal;font-size:3.94162107px;line-height:1.25;font-family:sans-serif;letter-spacing:0px;word-spacing:0px;fill:#ffffff;fill-opacity:1;stroke:none;stroke-width:0.098425;stroke-miterlimit:4;stroke-dasharray:none"
         transform="translate(0,-1.0583333)"
         aria-label="THE ISLAMIC REPUBLIC OF IRAN">
        <path
           inkscape:connector-curvature="0"
           id="path1057"
           style="font-style:normal;font-variant:normal;font-weight:bold;font-stretch:normal;font-size:3.52777767px;font-family:ARIAL;-inkscape-font-specification:'ARIAL Bold';stroke:#f0fff0;stroke-width:0.098425;stroke-linecap:round;stroke-linejoin:round;stroke-miterlimit:4;stroke-dasharray:none;stroke-opacity:1"
           d="m -43.759632,192.03387 1.777308,-1.11492 -0.398185,-0.63475 0.361882,-0.22701 1.066404,1.69997 -0.361882,0.22701 -0.39727,-0.63329 -1.777308,1.11492 z" />
        <path
           inkscape:connector-curvature="0"
           id="path1059"
           style="font-style:normal;font-variant:normal;font-weight:bold;font-stretch:normal;font-size:3.52777767px;font-family:ARIAL;-inkscape-font-specification:'ARIAL Bold';stroke:#f0fff0;stroke-width:0.098425;stroke-linecap:round;stroke-linejoin:round;stroke-miterlimit:4;stroke-dasharray:none;stroke-opacity:1"
           d="m -42.90262,193.3741 2.017104,-1.51928 0.306757,0.40727 -0.793908,0.59797 0.601079,0.79804 0.793908,-0.59797 0.306757,0.40727 -2.017103,1.51928 -0.306758,-0.40727 0.881967,-0.6643 -0.601079,-0.79803 -0.881966,0.66429 z" />
        <path
           inkscape:connector-curvature="0"
           id="path1061"
           style="font-style:normal;font-variant:normal;font-weight:bold;font-stretch:normal;font-size:3.52777767px;font-family:ARIAL;-inkscape-font-specification:'ARIAL Bold';stroke:#f0fff0;stroke-width:0.098425;stroke-linecap:round;stroke-linejoin:round;stroke-miterlimit:4;stroke-dasharray:none;stroke-opacity:1"
           d="m -41.34793,195.39312 1.874638,-1.69193 1.254525,1.38999 -0.317129,0.28622 -0.912906,-1.01148 -0.415592,0.37509 0.84943,0.94115 -0.315849,0.28507 -0.84943,-0.94116 -0.510219,0.46049 0.945222,1.0473 -0.31585,0.28506 z" />
        <path
           inkscape:connector-curvature="0"
           id="path1063"
           style="font-style:normal;font-variant:normal;font-weight:bold;font-stretch:normal;font-size:3.52777767px;font-family:ARIAL;-inkscape-font-specification:'ARIAL Bold';stroke:#f0fff0;stroke-width:0.098425;stroke-linecap:round;stroke-linejoin:round;stroke-miterlimit:4;stroke-dasharray:none;stroke-opacity:1"
           d="m -39.04966,197.78639 1.704695,-1.86304 0.376166,0.34419 -1.704695,1.86305 z" />
        <path
           inkscape:connector-curvature="0"
           id="path1065"
           style="font-style:normal;font-variant:normal;font-weight:bold;font-stretch:normal;font-size:3.52777767px;font-family:ARIAL;-inkscape-font-specification:'ARIAL Bold';stroke:#f0fff0;stroke-width:0.098425;stroke-linecap:round;stroke-linejoin:round;stroke-miterlimit:4;stroke-dasharray:none;stroke-opacity:1"
           d="m -37.902699,197.74188 0.415859,0.27477 q -0.122406,0.22228 -0.09038,0.39895 0.03336,0.17776 0.214062,0.32412 0.191412,0.15504 0.352839,0.15279 0.163849,-0.002 0.251668,-0.11093 0.05638,-0.0696 0.05391,-0.1514 -4.1e-5,-0.0821 -0.0725,-0.20059 -0.05009,-0.0805 -0.247847,-0.34262 -0.254607,-0.33701 -0.289867,-0.55621 -0.04952,-0.30833 0.139133,-0.54123 0.121429,-0.14992 0.310923,-0.21146 0.191918,-0.0618 0.406499,-0.001 0.215919,0.0618 0.442133,0.24506 0.369438,0.29924 0.424309,0.6119 0.05621,0.31376 -0.153427,0.59173 l -0.410304,-0.30352 q 0.09708,-0.17185 0.06588,-0.30575 -0.02878,-0.13414 -0.196098,-0.26967 -0.172673,-0.13986 -0.327848,-0.14806 -0.09977,-0.005 -0.161573,0.0708 -0.05638,0.0696 -0.0376,0.16684 0.024,0.12362 0.257834,0.42607 0.233832,0.30245 0.312072,0.48774 0.08066,0.18504 0.0553,0.37509 -0.02294,0.18979 -0.173642,0.37584 -0.136608,0.16866 -0.349567,0.24001 -0.212959,0.0713 -0.442839,0.005 -0.228796,-0.0678 -0.484458,-0.27491 -0.372116,-0.30141 -0.432783,-0.63429 -0.05958,-0.33421 0.16831,-0.69494 z" />
        <path
           inkscape:connector-curvature="0"
           id="path1067"
           style="font-style:normal;font-variant:normal;font-weight:bold;font-stretch:normal;font-size:3.52777767px;font-family:ARIAL;-inkscape-font-specification:'ARIAL Bold';stroke:#f0fff0;stroke-width:0.098425;stroke-linecap:round;stroke-linejoin:round;stroke-miterlimit:4;stroke-dasharray:none;stroke-opacity:1"
           d="m -36.460994,199.93337 1.412356,-2.06838 0.421073,0.28753 -1.172431,1.71701 1.046993,0.71492 -0.239926,0.35136 z" />
        <path
           inkscape:connector-curvature="0"
           id="path1069"
           style="font-style:normal;font-variant:normal;font-weight:bold;font-stretch:normal;font-size:3.52777767px;font-family:ARIAL;-inkscape-font-specification:'ARIAL Bold';stroke:#f0fff0;stroke-width:0.098425;stroke-linecap:round;stroke-linejoin:round;stroke-miterlimit:4;stroke-dasharray:none;stroke-opacity:1"
           d="m -32.699685,202.25002 -0.483084,-0.27254 0.08982,-0.60792 -0.879154,-0.49599 -0.463381,0.39717 -0.471082,-0.26577 2.097464,-1.71609 0.469582,0.26492 z m -0.326734,-1.33144 0.157386,-0.98711 -0.75749,0.64856 z" />
        <path
           inkscape:connector-curvature="0"
           id="path1071"
           style="font-style:normal;font-variant:normal;font-weight:bold;font-stretch:normal;font-size:3.52777767px;font-family:ARIAL;-inkscape-font-specification:'ARIAL Bold';stroke:#f0fff0;stroke-width:0.098425;stroke-linecap:round;stroke-linejoin:round;stroke-miterlimit:4;stroke-dasharray:none;stroke-opacity:1"
           d="m -32.459871,202.36795 1.01476,-2.3124 0.698767,0.30664 -0.272622,1.76148 1.10704,-1.3953 0.700343,0.30733 -1.01476,2.3124 -0.433772,-0.19036 0.798796,-1.82026 -1.257805,1.61883 -0.449545,-0.19727 0.341364,-2.021 -0.798795,1.82026 z" />
        <path
           inkscape:connector-curvature="0"
           id="path1073"
           style="font-style:normal;font-variant:normal;font-weight:bold;font-stretch:normal;font-size:3.52777767px;font-family:ARIAL;-inkscape-font-specification:'ARIAL Bold';stroke:#f0fff0;stroke-width:0.098425;stroke-linecap:round;stroke-linejoin:round;stroke-miterlimit:4;stroke-dasharray:none;stroke-opacity:1"
           d="m -29.75352,203.49835 0.846529,-2.37914 0.480372,0.17093 -0.846529,2.37914 z" />
        <path
           inkscape:connector-curvature="0"
           id="path1075"
           style="font-style:normal;font-variant:normal;font-weight:bold;font-stretch:normal;font-size:3.52777767px;font-family:ARIAL;-inkscape-font-specification:'ARIAL Bold';stroke:#f0fff0;stroke-width:0.098425;stroke-linecap:round;stroke-linejoin:round;stroke-miterlimit:4;stroke-dasharray:none;stroke-opacity:1"
           d="m -27.010816,203.38942 0.432585,0.28609 q -0.222506,0.3665 -0.532812,0.48773 -0.308179,0.12005 -0.699174,0.009 -0.483775,-0.13768 -0.701418,-0.55601 -0.217172,-0.42 -0.05403,-0.99324 0.172568,-0.60637 0.580938,-0.85192 0.408842,-0.24721 0.919125,-0.10199 0.445669,0.12683 0.649037,0.46947 0.121356,0.20288 0.12121,0.51805 l -0.518436,-0.0222 q 0.01067,-0.20113 -0.09572,-0.34961 -0.104735,-0.14801 -0.300233,-0.20364 -0.270052,-0.0769 -0.494207,0.0689 -0.222499,0.14622 -0.346031,0.58029 -0.131076,0.46058 -0.02104,0.70323 0.110039,0.24265 0.375121,0.31809 0.195498,0.0556 0.371685,-0.0285 0.176187,-0.0842 0.313398,-0.33347 z" />
        <path
           inkscape:connector-curvature="0"
           id="path1077"
           style="font-style:normal;font-variant:normal;font-weight:bold;font-stretch:normal;font-size:3.52777767px;font-family:ARIAL;-inkscape-font-specification:'ARIAL Bold';stroke:#f0fff0;stroke-width:0.098425;stroke-linecap:round;stroke-linejoin:round;stroke-miterlimit:4;stroke-dasharray:none;stroke-opacity:1"
           d="m -25.399179,204.71289 0.373404,-2.4975 1.06135,0.15869 q 0.400349,0.0599 0.570744,0.155 0.172352,0.0937 0.255658,0.28206 0.08331,0.18837 0.05019,0.40983 -0.04203,0.2811 -0.234786,0.44038 -0.192504,0.15758 -0.528433,0.15613 0.149283,0.11985 0.237842,0.24978 0.09026,0.13019 0.227289,0.44851 l 0.2321,0.53283 -0.603079,-0.0902 -0.28332,-0.59796 q -0.150657,-0.32036 -0.211001,-0.40601 -0.06009,-0.0874 -0.136085,-0.12659 -0.07574,-0.0409 -0.249508,-0.0669 l -0.102216,-0.0153 -0.155882,1.04261 z m 0.719754,-1.36586 0.373091,0.0558 q 0.362869,0.0543 0.457745,0.0371 0.09488,-0.0172 0.157192,-0.0845 0.06231,-0.0673 0.07913,-0.17975 0.01885,-0.12607 -0.03783,-0.21292 -0.05472,-0.0883 -0.174328,-0.12708 -0.06006,-0.0177 -0.366706,-0.0635 l -0.393535,-0.0588 z" />
        <path
           inkscape:connector-curvature="0"
           id="path1079"
           style="font-style:normal;font-variant:normal;font-weight:bold;font-stretch:normal;font-size:3.52777767px;font-family:ARIAL;-inkscape-font-specification:'ARIAL Bold';stroke:#f0fff0;stroke-width:0.098425;stroke-linecap:round;stroke-linejoin:round;stroke-miterlimit:4;stroke-dasharray:none;stroke-opacity:1"
           d="m -22.875278,205.06254 0.150519,-2.52077 1.869081,0.11161 -0.02546,0.42643 -1.360113,-0.0812 -0.03337,0.55883 1.265541,0.0756 -0.02536,0.42471 -1.265541,-0.0756 -0.04097,0.68608 1.408258,0.0841 -0.02536,0.42471 z" />
        <path
           inkscape:connector-curvature="0"
           id="path1081"
           style="font-style:normal;font-variant:normal;font-weight:bold;font-stretch:normal;font-size:3.52777767px;font-family:ARIAL;-inkscape-font-specification:'ARIAL Bold';stroke:#f0fff0;stroke-width:0.098425;stroke-linecap:round;stroke-linejoin:round;stroke-miterlimit:4;stroke-dasharray:none;stroke-opacity:1"
           d="m -20.520709,205.18124 -0.06232,-2.52448 0.817961,-0.0202 q 0.464946,-0.0115 0.607087,0.0229 0.218378,0.0515 0.369468,0.239 0.151048,0.18581 0.158487,0.48716 0.0057,0.23248 -0.07473,0.39299 -0.08047,0.1605 -0.209089,0.255 -0.126942,0.0927 -0.260537,0.12533 -0.181642,0.0407 -0.527768,0.0492 l -0.332351,0.008 0.02351,0.95228 z m 0.457945,-2.11 0.01768,0.71636 0.278968,-0.007 q 0.301354,-0.007 0.401975,-0.0496 0.100622,-0.0421 0.155366,-0.1279 0.05647,-0.0858 0.0537,-0.19775 -0.0034,-0.13777 -0.08655,-0.22531 -0.08315,-0.0876 -0.207684,-0.10688 -0.09169,-0.015 -0.367216,-0.008 z" />
        <path
           inkscape:connector-curvature="0"
           id="path1083"
           style="font-style:normal;font-variant:normal;font-weight:bold;font-stretch:normal;font-size:3.52777767px;font-family:ARIAL;-inkscape-font-specification:'ARIAL Bold';stroke:#f0fff0;stroke-width:0.098425;stroke-linecap:round;stroke-linejoin:round;stroke-miterlimit:4;stroke-dasharray:none;stroke-opacity:1"
           d="m -18.452446,202.59621 0.506621,-0.0575 0.154252,1.35897 q 0.03672,0.32349 0.06642,0.4172 0.05,0.15035 0.18221,0.23069 0.133723,0.0784 0.345956,0.0543 0.215656,-0.0245 0.315288,-0.12421 0.09944,-0.10143 0.107117,-0.23232 0.0077,-0.1309 -0.02612,-0.42871 l -0.157554,-1.38807 0.506621,-0.0575 0.149589,1.3179 q 0.05129,0.45185 0.03139,0.64307 -0.0199,0.19122 -0.116583,0.33222 -0.09497,0.1408 -0.271075,0.2388 -0.1763,0.0963 -0.474111,0.13009 -0.359428,0.0408 -0.555312,-0.0202 -0.194368,-0.0629 -0.317155,-0.18244 -0.122981,-0.12126 -0.173725,-0.26286 -0.07411,-0.21002 -0.121905,-0.63106 z" />
        <path
           inkscape:connector-curvature="0"
           id="path1085"
           style="font-style:normal;font-variant:normal;font-weight:bold;font-stretch:normal;font-size:3.52777767px;font-family:ARIAL;-inkscape-font-specification:'ARIAL Bold';stroke:#f0fff0;stroke-width:0.098425;stroke-linecap:round;stroke-linejoin:round;stroke-miterlimit:4;stroke-dasharray:none;stroke-opacity:1"
           d="m -16.147614,202.3216 0.988109,-0.20629 q 0.293397,-0.0613 0.442004,-0.0659 0.149941,-0.007 0.279109,0.0473 0.130855,0.0536 0.23384,0.16762 0.102633,0.11231 0.136076,0.2725 0.03626,0.17368 -0.02789,0.33841 -0.06247,0.16437 -0.207516,0.27032 0.239679,0.0186 0.394176,0.15174 0.154497,0.13316 0.199205,0.34731 0.0352,0.16862 -0.0106,0.34535 -0.04447,0.1747 -0.16099,0.29932 -0.115181,0.12259 -0.309575,0.18605 -0.121962,0.0395 -0.598451,0.14254 l -0.841409,0.17566 z m 0.585009,0.30723 0.119339,0.57162 0.327121,-0.0683 q 0.291711,-0.0609 0.360771,-0.0841 0.124983,-0.0419 0.182351,-0.12957 0.0587,-0.0897 0.03371,-0.2094 -0.02394,-0.11466 -0.102799,-0.17211 -0.07753,-0.0595 -0.205473,-0.0486 -0.07595,0.007 -0.428366,0.0806 z m 0.205235,0.98305 0.137996,0.66098 0.462017,-0.0965 q 0.269791,-0.0563 0.339129,-0.0866 0.107064,-0.0435 0.160004,-0.13547 0.05428,-0.094 0.02682,-0.22556 -0.02323,-0.11129 -0.09338,-0.17759 -0.07015,-0.0663 -0.180402,-0.0802 -0.108565,-0.0143 -0.449175,0.0568 z" />
        <path
           inkscape:connector-curvature="0"
           id="path1087"
           style="font-style:normal;font-variant:normal;font-weight:bold;font-stretch:normal;font-size:3.52777767px;font-family:ARIAL;-inkscape-font-specification:'ARIAL Bold';stroke:#f0fff0;stroke-width:0.098425;stroke-linecap:round;stroke-linejoin:round;stroke-miterlimit:4;stroke-dasharray:none;stroke-opacity:1"
           d="m -13.130432,204.23899 -0.720735,-2.39864 0.488307,-0.14672 0.598299,1.99117 1.214168,-0.36483 0.122436,0.40747 z" />
        <path
           inkscape:connector-curvature="0"
           id="path1089"
           style="font-style:normal;font-variant:normal;font-weight:bold;font-stretch:normal;font-size:3.52777767px;font-family:ARIAL;-inkscape-font-specification:'ARIAL Bold';stroke:#f0fff0;stroke-width:0.098425;stroke-linecap:round;stroke-linejoin:round;stroke-miterlimit:4;stroke-dasharray:none;stroke-opacity:1"
           d="m -11.102485,203.59754 -0.86422,-2.37277 0.479086,-0.1745 0.86422,2.37277 z" />
        <path
           inkscape:connector-curvature="0"
           id="path1091"
           style="font-style:normal;font-variant:normal;font-weight:bold;font-stretch:normal;font-size:3.52777767px;font-family:ARIAL;-inkscape-font-specification:'ARIAL Bold';stroke:#f0fff0;stroke-width:0.098425;stroke-linecap:round;stroke-linejoin:round;stroke-miterlimit:4;stroke-dasharray:none;stroke-opacity:1"
           d="m -9.0585563,201.76548 0.5156751,-0.0553 q 0.062133,0.42424 -0.099716,0.71543 -0.1609644,0.28892 -0.5331764,0.45237 -0.4605336,0.20224 -0.8948704,0.0186 -0.43503,-0.18523 -0.674672,-0.73093 -0.253495,-0.57724 -0.09532,-1.02673 0.157486,-0.45107 0.643254,-0.66439 0.4242589,-0.18632 0.7993481,-0.0519 0.2228222,0.079 0.4235797,0.32194 l -0.4136281,0.31334 q -0.1199638,-0.16179 -0.296581,-0.2084 -0.1750401,-0.0473 -0.3611467,0.0344 -0.257078,0.11289 -0.336914,0.36807 -0.07826,0.25448 0.103204,0.6677 0.192545,0.43845 0.4319901,0.5553 0.2394447,0.11684 0.4917919,0.006 0.186106,-0.0817 0.2682198,-0.25889 0.082114,-0.17716 0.028959,-0.45671 z" />
        <path
           inkscape:connector-curvature="0"
           id="path1093"
           style="font-style:normal;font-variant:normal;font-weight:bold;font-stretch:normal;font-size:3.52777767px;font-family:ARIAL;-inkscape-font-specification:'ARIAL Bold';stroke:#f0fff0;stroke-width:0.098425;stroke-linecap:round;stroke-linejoin:round;stroke-miterlimit:4;stroke-dasharray:none;stroke-opacity:1"
           d="m -7.7083681,200.75021 q -0.2003107,-0.32978 -0.2375955,-0.61347 -0.026543,-0.20961 0.020482,-0.41754 0.048497,-0.20883 0.1616859,-0.36424 0.1498311,-0.2079 0.4133625,-0.36797 0.4770066,-0.28974 0.9423647,-0.1673 0.4668303,0.12154 0.7869697,0.6486 0.3174566,0.52265 0.2130568,0.99116 -0.1052941,0.46704 -0.5808284,0.75588 -0.4814234,0.29242 -0.9435207,0.17203 -0.4629916,-0.12186 -0.775977,-0.63715 z m 0.4400915,-0.28746 q 0.2226668,0.36659 0.5073321,0.45367 0.2837712,0.0856 0.5443581,-0.0727 0.260587,-0.15829 0.3133814,-0.44631 0.053372,-0.29039 -0.1746598,-0.66581 -0.2253495,-0.37101 -0.4996546,-0.4543 -0.272833,-0.0842 -0.5422534,0.0794 -0.2694204,0.16365 -0.3216368,0.4493 -0.053111,0.28419 0.173133,0.65667 z" />
        <path
           inkscape:connector-curvature="0"
           id="path1095"
           style="font-style:normal;font-variant:normal;font-weight:bold;font-stretch:normal;font-size:3.52777767px;font-family:ARIAL;-inkscape-font-specification:'ARIAL Bold';stroke:#f0fff0;stroke-width:0.098425;stroke-linecap:round;stroke-linejoin:round;stroke-miterlimit:4;stroke-dasharray:none;stroke-opacity:1"
           d="m -4.644567,200.306 -1.497282,-2.03349 1.3940327,-1.02644 0.2532919,0.344 -0.9834519,0.72413 0.3544044,0.48132 0.8489034,-0.62506 0.2532919,0.344 -0.8489034,0.62506 0.6362938,0.86416 z" />
        <path
           inkscape:connector-curvature="0"
           id="path1097"
           style="font-style:normal;font-variant:normal;font-weight:bold;font-stretch:normal;font-size:3.52777767px;font-family:ARIAL;-inkscape-font-specification:'ARIAL Bold';stroke:#f0fff0;stroke-width:0.098425;stroke-linecap:round;stroke-linejoin:round;stroke-miterlimit:4;stroke-dasharray:none;stroke-opacity:1"
           d="m -2.1932809,198.38391 -1.6778723,-1.88723 0.3810515,-0.33878 1.6778724,1.88723 z" />
        <path
           inkscape:connector-curvature="0"
           id="path1099"
           style="font-style:normal;font-variant:normal;font-weight:bold;font-stretch:normal;font-size:3.52777767px;font-family:ARIAL;-inkscape-font-specification:'ARIAL Bold';stroke:#f0fff0;stroke-width:0.098425;stroke-linecap:round;stroke-linejoin:round;stroke-miterlimit:4;stroke-dasharray:none;stroke-opacity:1"
           d="m -1.4428736,197.72817 -1.7945887,-1.77662 0.7550011,-0.76264 q 0.2847918,-0.28767 0.4622166,-0.36895 0.1774126,-0.0837 0.378611,-0.0397 0.2011984,0.0441 0.3603366,0.2016 0.201983,0.19996 0.2166377,0.44959 0.013431,0.24841 -0.1861863,0.5186 0.1848923,-0.0497 0.34204623,-0.0444 0.15836578,0.004 0.49615292,0.0815 l 0.56703043,0.12747 -0.42900546,0.43335 -0.64984283,-0.12463 q -0.34748219,-0.0677 -0.45224329,-0.0696 -0.1059852,-0.003 -0.1825298,0.035 -0.077769,0.0369 -0.2013805,0.16179 l -0.072713,0.0734 0.7491735,0.74167 z m -0.6769057,-1.3876 0.2654016,-0.26808 q 0.2581304,-0.26075 0.3003256,-0.34744 0.042195,-0.0867 0.024689,-0.17674 -0.017506,-0.09 -0.098299,-0.17003 -0.090586,-0.0897 -0.1941478,-0.0952 -0.1035738,-0.008 -0.2055188,0.0656 -0.049748,0.038 -0.2678867,0.25836 l -0.2799443,0.28277 z" />
        <path
           inkscape:connector-curvature="0"
           id="path1101"
           style="font-style:normal;font-variant:normal;font-weight:bold;font-stretch:normal;font-size:3.52777767px;font-family:ARIAL;-inkscape-font-specification:'ARIAL Bold';stroke:#f0fff0;stroke-width:0.098425;stroke-linecap:round;stroke-linejoin:round;stroke-miterlimit:4;stroke-dasharray:none;stroke-opacity:1"
           d="m 1.7797303,194.1417 -0.3523254,0.42839 -0.58307553,-0.19407 -0.64118839,0.77961 0.31062522,0.52534 -0.34357193,0.41774 -1.32557997,-2.36372 0.34247772,-0.41641 z m -1.36795486,0.0904 -0.94475761,-0.32649 0.50708636,0.85865 z" />
        <path
           inkscape:connector-curvature="0"
           id="path1103"
           style="font-style:normal;font-variant:normal;font-weight:bold;font-stretch:normal;font-size:3.52777767px;font-family:ARIAL;-inkscape-font-specification:'ARIAL Bold';stroke:#f0fff0;stroke-width:0.098425;stroke-linecap:round;stroke-linejoin:round;stroke-miterlimit:4;stroke-dasharray:none;stroke-opacity:1"
           d="m 1.937737,193.9116 -2.08987298,-1.41752 0.27847459,-0.41056 1.97577999,0.0913 -1.39562459,-0.94662 0.26590456,-0.39203 2.08987303,1.41752 -0.2871769,0.42339 -1.93428981,-0.0819 1.36283671,0.92439 z" />
      </g>
    </g>
  </g>
</svg>
