<svg xmlns="http://www.w3.org/2000/svg" xmlns:xlink="http://www.w3.org/1999/xlink" viewBox="0 0 2186.07 1893.31"><defs><style>.cls-1{fill-rule:evenodd;fill:url(#radial-gradient);}</style><radialGradient id="radial-gradient" cx="2207.32" cy="818.37" r="396.36" gradientTransform="matrix(1, 0, 0, -1, 0, 2642.73)" gradientUnits="userSpaceOnUse"><stop offset="0.21" stop-color="aqua"/><stop offset="1" stop-color="#006464"/></radialGradient></defs><g id="Layer_2" data-name="Layer 2"><g id="Layer_1-2" data-name="Layer 1"><g id="Layer_1-3" data-name="Layer_1"><path class="cls-1" d="M956.34,417.32v0ZM1093,400.1c301.85,0,546.55,244.7,546.55,546.55,0,230.21-142.34,427.2-343.83,507.72l-110.11-326.61c105.07,44.41,205.27,60.93,288.06-44.48-42.87,45.71-107.36,0-107.36,0,66.42,0,171.68-68.33,171.68-136.66-.58,2.16-75,64.27-145.16,68.33-2.82,0,176.17-68.33,168.35-205-2.3,5-62.36,72.6-128.81,74.2,0,0,136.63-74.2,136.63-205.82C1435.57,808.32,1336.34,810,1134,810c-16.3-30.21-24.94-34.14-7.65-75.06,24.22-10.59,41.8-35.22,28.71-61,76.68-2,145.71-70.27,208.42-201.71-16.93,17-47.34,29.86-82.21,39.45,14.79-22.53,14.79-54.26,14.79-71.13,0,22.73-36.45,42.28-82.69,57.66,9.41-17.61,16.25-43.28,16.25-80.71,0,30-46.78,65.76-98.78,90.09-10.9-20-24.22-53.13-37.87-107.56ZM956.34,417.32A547.51,547.51,0,0,1,1093,400.1c-13.36,54-27.12,86.66-38.89,106.4C1002.77,482.3,956.79,447.08,956.34,417.32Zm-70.2,23.27a542.58,542.58,0,0,1,70.2-23.27c0,38,6.94,63.88,16.29,81.52-48.13-15.38-86.49-35.12-86.49-58.25Zm-63.66,31a545.06,545.06,0,0,1,63.66-31c0,16.51,0,47.26,14.66,69.56-33.24-9.57-62-22.17-78.32-38.53ZM615.72,680.11A549.1,549.1,0,0,1,822.48,471.62c62.8,131.62,131.95,199.88,208.76,201.72a39.89,39.89,0,0,0-4.21,12.32c-30.1,11-70.5,14.38-174,56,102.82-21.13,148-34.1,178.64-30.66,5.61,10.08,15.51,18.49,28,23.94,17.37,45.2,4.53,43.85-12.3,75-202.95,0-298.12,0-431.61-129.91Zm-.31.53v-.82l.31.29Zm271,772.18c-199.44-81.47-340-277.41-340-506.17a544.06,544.06,0,0,1,69-266C615.24,765.26,680.26,847,752.5,885.69,686.05,884.09,621.05,815,618.75,810c-7.82,136.63,176.1,206.42,173.28,206.42-70.18-4.05-153.28-67.63-153.87-69.79,0,68.33,114,138.11,180.39,138.11,0,0-66.42,45.71-109.28,0,82.38,103.06,182.29,87.13,286.54,43.12l-109.4,324.94ZM2186.07,946.65s-364.25,0-389-188.65c-73-175.72,84.79-266.8,84.79-266.8s-157.9,91.21-273.58-59.84C1457.41,315.44,1639.53,0,1639.53,0s-182.12,315.44-357.9,242.57C1093,217.92,1093,35.73,1093,35.73s0,182.19-188.66,206.84C728.5,315.28,546.43,0,546.43,0s182.12,315.44,31.13,431.24c-115.69,151-273.47,60-273.47,60S461.87,582.28,388.9,758C364,946.61,0,946.53,0,946.53s364.25,0,389,188.65c73,175.72-84.8,266.81-84.8,266.81S462,1310.9,577.68,1462c150.87,115.91-31.25,431.36-31.25,431.36s182.12-315.45,357.89-242.58C1093,1675.39,1093,1857.58,1093,1857.58s0-182.19,188.65-206.85c175.82-72.7,357.73,242.53,357.73,242.53s-182.13-315.44-31.14-431.22c115.69-151.06,273.46-60,273.46-60s-157.77-91.11-84.8-266.82c24.94-188.61,389.19-188.61,389.19-188.61Z"/></g></g></g></svg>